<svg version="1.1" id="Layer_1" xmlns:x="ns_extend;" xmlns:i="ns_ai;" xmlns:graph="ns_graphs;" xmlns="http://www.w3.org/2000/svg" xmlns:xlink="http://www.w3.org/1999/xlink" x="0px" y="0px" viewBox="0 0 321.7 126.6" style="enable-background:new 0 0 321.7 126.6;" xml:space="preserve">
 <style type="text/css">
  .st0{fill:#FFFFFF;}
 </style>
 <metadata>
  <sfw xmlns="ns_sfw;">
   <slices>
   </slices>
   <sliceSourceBounds bottomLeftOrigin="true" height="126.6" width="321.7" x="45.6" y="98.8">
   </sliceSourceBounds>
  </sfw>
 </metadata>
 <g>
  <path class="st0" d="M194.1,53.8c10.4,0,13.1-1.6,19.4-1.8c7.1-0.2,10.5,1,10.5,1c-0.5-2-0.9-4.2,1.3-9.9c1.6-4.1,3.4-9,5.2-13.6
		c4.1-10.8-4.7-15.5-19.1-15.5c-9,0-13.6,0.8-18.5,1.6l-3.4,8.8c3.2-1,10.2-2.8,20.3-2.7c9.5,0.1,8.7,4,8.1,5.9
		c-3.3-0.2-9.3-0.5-16.1,0c-4.4,0.3-8.6,0.9-12.9,2.6c-6.4,2.5-9.3,7-9.7,12.2C178.8,48.2,182.9,53.8,194.1,53.8z M193,40.8
		c0.6-3.4,3.2-5.2,10.3-6c3.6-0.4,6.9-0.5,11.8-0.2l-3.3,8.6c-2.9,1.5-7.1,2.4-11,2.6C194.3,46,192.5,43.5,193,40.8z">
  </path>
  <polygon class="st0" points="112.2,53 132.3,1.1 119,1.1 98.8,53 	">
  </polygon>
  <path class="st0" d="M129,49.6c2.5,2.7,6.2,3.7,10.6,3.9c6.5,0.3,12.5-1,18.2-4.7c-3.3,9.9-14.7,12-22.4,11.9
		c-3.7,0-7.8-0.2-11.1-1.7l-3.4,8.4c3.4,0.9,8.4,1.5,12.4,1.5c18.8,0,30.9-6.7,35.9-19.9L182,15.2c0,0-3.8,1-6.4,1
		c-6.9,0-7.2-1.9-18.4-1.9c-16.1,0-29.3,11.8-31.2,24.9C125.5,43.3,126.6,47,129,49.6z M141.7,32.9c3.5-7.6,10.6-11.1,15.2-11.2
		c3.4-0.1,6.2,0.4,8.4,2.5c-5.3,20.6-16,22.2-19.2,22.2C138.3,46.4,139,38.8,141.7,32.9z">
  </path>
  <path class="st0" d="M15.8,29.9C18,17.6,29.9,8.3,44,8.3c4.3,0,8.2,0.8,11.7,2.3l4.1-8C56.3,1,51.4,0,46.8,0
		C24.3,0,3.3,12.8,0.3,29.9C-2.3,45,10.7,53.4,26.7,53.4c4.3,0,9.1-0.7,13-1.6l4.3-9.6c-2.4,1.2-8.4,2.9-13,2.9
		C18.3,45.1,14.5,37.4,15.8,29.9z">
  </path>
  <path class="st0" d="M294,13.7c-14.5,0-26.9,8.1-30.1,19.7c-1.6,5.9-0.8,11,2.4,14.9c3.5,4.3,9.7,6.6,17.4,6.6
		c4.5,0,9.8-0.8,14.7-2.3l4-8.2c-3.7,1.8-10.2,2.8-14.5,2.8c-3.8,0-6.9-1.3-8.7-3.6c-1.7-2.1-2.1-4.9-1.3-7.9h30.7l0.1-0.4
		c2.4-6.7,2.1-12.5-0.9-16.3C305.2,15.5,300.5,13.7,294,13.7z M297.4,29.2H280c1.3-4.1,5.2-8.7,12.2-8.7c2.4,0,4.1,0.6,5.1,1.8
		C298.4,23.8,298.4,26.2,297.4,29.2z">
  </path>
  <path class="st0" d="M317.4,12.1L317.4,12.1c0.7-0.3,1.2-0.7,1.2-1.2c0-0.5-0.2-0.9-0.5-1.1c-0.4-0.3-0.9-0.4-2.1-0.4
		c-1.1,0-1.9,0.1-2.2,0.2v5.1h1.6v-1.9h0.5c0.5,0,0.8,0.3,0.9,0.8c0.1,0.5,0.2,0.9,0.4,1.1h1.8c-0.1-0.2-0.2-0.5-0.4-1.2
		C318.3,12.7,317.9,12.3,317.4,12.1z M315.8,11.7h-0.5v-1.2c0.1,0,0.3,0,0.5,0c0.5,0,0.9,0.2,0.9,0.6
		C316.7,11.5,316.4,11.7,315.8,11.7z">
  </path>
  <path class="st0" d="M316.1,6.5H316c-3.2,0-5.7,2.5-5.7,5.5c0,3.1,2.5,5.6,5.7,5.6c3.2,0,5.7-2.5,5.7-5.6
		C321.7,9,319.2,6.5,316.1,6.5z M316,16.2c-2.3,0-4-1.9-4-4.1c0-2.3,1.7-4.2,3.9-4.2h0c2.4,0,4.1,1.8,4.1,4.1
		C320,14.3,318.3,16.2,316,16.2z">
  </path>
  <path class="st0" d="M201.9,99.9c-14.1,6.9-29.6,10.4-45.2,10.4c-15.6,0-31-3.6-45.2-10.5C97.4,93,84.7,82.9,73.9,70.7L70,80.6
		c8.7,13,20.7,24.2,34.6,32.2c15.6,9,33.8,13.9,52,13.8c18.2,0,36.4-4.9,52-13.9c14-8,25.9-19.2,34.7-32.3l-3.7-9.6
		C228.8,83,216.1,93.1,201.9,99.9z">
  </path>
  <path class="st0" d="M99.8,31.5c2.5-11-7.2-17.2-20-17.2c-13.5,0-28.4,8.1-31.2,21.8C45.7,50.7,58.7,53.8,67,53.9
		C85.7,54.1,97.1,42.9,99.8,31.5z M86.1,29.8c-3.4,16.7-13.6,17.6-15.5,17.6c-3.2,0-5.6-0.8-6.9-2.4c-1.5-1.7-1.9-4.4-1.1-8
		c1.3-6.5,6.9-16.1,17-16.1c2.4,0,4.3,0.7,5.4,2C86.2,24.5,86.7,26.9,86.1,29.8z">
  </path>
  <path class="st0" d="M248.6,44.5c-0.8-1.1-0.6-3.3,0.6-6.4c0,0,6.2-15.2,7.2-17.8h9.4l2.4-6.2h-9.4l2.8-7.6l-14.2,2.4l-1.9,5.1
		h-6.3l-2.3,6.2h6.2l-7.5,18.5c-1.9,4.7-2,8.1-0.3,10.5c1.7,2.3,5,3.4,10.2,3.4c2.9,0,6.8-0.6,9.9-1.4l3-7.3v0
		c-1.7,0.7-4.5,1.4-6.7,1.5C250.1,45.6,249.2,45.3,248.6,44.5z">
  </path>
 </g>
</svg>