<?xml version="1.0" encoding="UTF-8" standalone="no"?>
<!-- Created with Inkscape (http://www.inkscape.org/) -->

<svg
   xmlns:dc="http://purl.org/dc/elements/1.1/"
   xmlns:cc="http://creativecommons.org/ns#"
   xmlns:rdf="http://www.w3.org/1999/02/22-rdf-syntax-ns#"
   xmlns:svg="http://www.w3.org/2000/svg"
   xmlns="http://www.w3.org/2000/svg"
   xmlns:sodipodi="http://sodipodi.sourceforge.net/DTD/sodipodi-0.dtd"
   xmlns:inkscape="http://www.inkscape.org/namespaces/inkscape"
   width="748.25684"
   height="162.03203"
   id="svg3133"
   version="1.1"
   inkscape:version="0.48.5 r10040"
   sodipodi:docname="Neues Dokument 5">
  <defs
     id="defs3135" />
  <sodipodi:namedview
     id="base"
     pagecolor="#ffffff"
     bordercolor="#666666"
     borderopacity="1.0"
     inkscape:pageopacity="0.0"
     inkscape:pageshadow="2"
     inkscape:zoom="0.35"
     inkscape:cx="256.98556"
     inkscape:cy="59.674654"
     inkscape:document-units="px"
     inkscape:current-layer="layer1"
     showgrid="false"
     fit-margin-top="0"
     fit-margin-left="0"
     fit-margin-right="0"
     fit-margin-bottom="0"
     inkscape:window-width="588"
     inkscape:window-height="411"
     inkscape:window-x="644"
     inkscape:window-y="0"
     inkscape:window-maximized="0" />
  <metadata
     id="metadata3138">
    <rdf:RDF>
      <cc:Work
         rdf:about="">
        <dc:format>image/svg+xml</dc:format>
        <dc:type
           rdf:resource="http://purl.org/dc/dcmitype/StillImage" />
        <dc:title></dc:title>
      </cc:Work>
    </rdf:RDF>
  </metadata>
  <g
     inkscape:label="Ebene 1"
     inkscape:groupmode="layer"
     id="layer1"
     transform="translate(-93.014441,-431.43337)">
    <g
       id="g3202"
       transform="matrix(3.4060379,0,0,3.4060379,-223.79626,-1038.0449)">
      <path
         style="fill:#231f20;fill-opacity:1;fill-rule:evenodd;stroke:none"
         id="path16"
         inkscape:connector-curvature="0"
         d="m 156.2581,431.94958 c -12.99412,0 -23.52837,10.53375 -23.52837,23.52787 0,12.99363 10.53425,23.52788 23.52837,23.52788 12.99412,0 23.52825,-10.53425 23.52825,-23.52788 0,-12.99412 -10.53413,-23.52787 -23.52825,-23.52787 z m 0,10.635 c 7.11962,0 12.89212,5.7725 12.89212,12.89287 0,7.11963 -5.7725,12.89163 -12.89212,12.89163 -7.12013,0 -12.89262,-5.772 -12.89262,-12.89163 0,-7.12037 5.77249,-12.89287 12.89262,-12.89287" />
      <path
         style="fill:#231f20;fill-opacity:1;fill-rule:evenodd;stroke:none"
         id="path18"
         inkscape:connector-curvature="0"
         d="m 93.014438,455.3632 c 0,8.43263 4.216787,23.45413 20.055662,23.58788 13.44625,0.11425 19.82812,-8.88813 20.3975,-17.77638 l -11.167,0 c -1.02588,6.8375 -5.92575,7.065 -8.54688,7.065 -2.62062,0 -9.68562,-0.2275 -9.68562,-12.8765 0,-12.64862 7.065,-13.33237 9.68562,-13.33237 2.62113,0 7.521,0.68375 8.54688,7.52125 l 11.167,0 c -0.56938,-8.8875 -4.21637,-18.11875 -20.05575,-18.11875 -15.83925,0 -20.397412,15.4975 -20.397412,23.92987" />
      <path
         style="fill:#231f20;fill-opacity:1;fill-rule:evenodd;stroke:none"
         id="path20"
         inkscape:connector-curvature="0"
         d="m 181.78347,433.94083 0,44.441 10.48338,0 0,-25.29788 12.42088,25.29788 12.07837,0 0,-44.441 -10.48312,0 0,25.525 -12.64888,-25.525 -11.85063,0" />
      <path
         style="fill:#231f20;fill-opacity:1;fill-rule:evenodd;stroke:none"
         id="path22"
         inkscape:connector-curvature="0"
         d="m 256.5361,450.91958 10.93945,0 0,-16.979 -10.93945,0 0,16.979 z" />
      <path
         style="fill:#231f20;fill-opacity:1;fill-rule:evenodd;stroke:none"
         id="path24"
         inkscape:connector-curvature="0"
         d="m 256.5361,457.41445 10.93945,0 0,-5.2417 -10.93945,0 0,5.2417 z" />
      <path
         style="fill:#231f20;fill-opacity:1;fill-rule:evenodd;stroke:none"
         id="path26"
         inkscape:connector-curvature="0"
         d="m 256.5361,462.6562 10.93945,0 0,-3.87451 -10.93945,0 0,3.87451 z" />
      <path
         style="fill:#231f20;fill-opacity:1;fill-rule:evenodd;stroke:none"
         id="path28"
         inkscape:connector-curvature="0"
         d="m 256.5361,468.12595 10.93945,0 0,-3.19091 -10.93945,0 0,3.19091 z" />
      <path
         style="fill:#231f20;fill-opacity:1;fill-rule:evenodd;stroke:none"
         id="path30"
         inkscape:connector-curvature="0"
         d="m 256.5361,473.48145 10.93945,0 0,-2.6206 -10.93945,0 0,2.6206 z" />
      <path
         style="fill:#231f20;fill-opacity:1;fill-rule:evenodd;stroke:none"
         id="path32"
         inkscape:connector-curvature="0"
         d="m 256.5361,478.38183 10.93945,0 0,-1.36768 -10.93945,0 0,1.36768 z" />
      <path
         style="fill:#231f20;fill-opacity:1;fill-rule:evenodd;stroke:none"
         id="path34"
         inkscape:connector-curvature="0"
         d="m 304.1686,462.6562 -33.845,0 0,-3.8745 30.54,0 c 2.05125,0 3.41875,2.84913 3.305,3.8745" />
      <path
         style="fill:#231f20;fill-opacity:1;fill-rule:evenodd;stroke:none"
         id="path36"
         inkscape:connector-curvature="0"
         d="m 270.3236,468.12595 10.93994,0 0,-3.19091 -10.93994,0 0,3.19091 z" />
      <path
         style="fill:#231f20;fill-opacity:1;fill-rule:evenodd;stroke:none"
         id="path38"
         inkscape:connector-curvature="0"
         d="m 270.3236,473.48145 10.93994,0 0,-2.6206 -10.93994,0 0,2.6206 z" />
      <path
         style="fill:#231f20;fill-opacity:1;fill-rule:evenodd;stroke:none"
         id="path40"
         inkscape:connector-curvature="0"
         d="m 270.3236,478.38183 10.93994,0 0,-1.36768 -10.93994,0 0,1.36768 z" />
      <path
         style="fill:#231f20;fill-opacity:1;fill-rule:evenodd;stroke:none"
         id="path42"
         inkscape:connector-curvature="0"
         d="m 224.79985,450.91958 10.4275,0 1.0825,-3.93125 1.19625,3.93125 10.48375,0 -5.64125,-16.97875 -12.02125,0 -5.5275,16.97875" />
      <path
         style="fill:#231f20;fill-opacity:1;fill-rule:evenodd;stroke:none"
         id="path44"
         inkscape:connector-curvature="0"
         d="m 224.4011,452.17283 -1.76625,5.24162 10.54125,0 1.65125,-5.24162 -10.42625,0" />
      <path
         style="fill:#231f20;fill-opacity:1;fill-rule:evenodd;stroke:none"
         id="path46"
         inkscape:connector-curvature="0"
         d="m 222.2361,458.7817 -1.25375,3.8745 30.825,0 -1.31125,-3.8745 -28.26,0" />
      <path
         style="fill:#231f20;fill-opacity:1;fill-rule:evenodd;stroke:none"
         id="path48"
         inkscape:connector-curvature="0"
         d="m 220.24235,464.93495 -1.0825,3.191 34.41375,0 -1.0825,-3.191 -32.24875,0" />
      <path
         style="fill:#231f20;fill-opacity:1;fill-rule:evenodd;stroke:none"
         id="path50"
         inkscape:connector-curvature="0"
         d="m 218.2486,470.86083 -0.855,2.62062 11.11,0 0.74125,-2.62062 -10.99625,0" />
      <path
         style="fill:#231f20;fill-opacity:1;fill-rule:evenodd;stroke:none"
         id="path52"
         inkscape:connector-curvature="0"
         d="m 216.2536,477.01408 11.225,0 -0.39875,1.36775 -11.28125,0 0.455,-1.36775" />
      <path
         style="fill:#231f20;fill-opacity:1;fill-rule:evenodd;stroke:none"
         id="path54"
         inkscape:connector-curvature="0"
         d="m 248.27485,452.17283 1.70875,5.24162 -10.54,0 -1.59625,-5.24162 10.4275,0" />
      <path
         style="fill:#231f20;fill-opacity:1;fill-rule:evenodd;stroke:none"
         id="path56"
         inkscape:connector-curvature="0"
         d="m 254.4286,470.86083 0.85375,2.62062 -11.11,0 -0.74125,-2.62062 10.9975,0" />
      <path
         style="fill:#231f20;fill-opacity:1;fill-rule:evenodd;stroke:none"
         id="path58"
         inkscape:connector-curvature="0"
         d="m 256.42235,477.01408 -11.22375,0 0.3975,1.36775 11.2825,0 -0.45625,-1.36775" />
      <path
         style="fill:#231f20;fill-opacity:1;fill-rule:evenodd;stroke:none"
         id="path60"
         inkscape:connector-curvature="0"
         d="m 281.2636,452.17283 9.34375,0 c 6.04,0 5.2425,-8.43325 0.11375,-8.43325 l -9.4575,0 0,8.43325 z m -10.94,5.24162 0,-23.47362 22.79125,0 c 6.495,0.11375 12.1925,4.78625 12.535,10.36875 0.34125,5.585 -2.62125,10.48437 -7.9775,13.10487 l -27.34875,0" />
      <path
         style="fill:#231f20;fill-opacity:1;fill-rule:evenodd;stroke:none"
         id="path62"
         inkscape:connector-curvature="0"
         d="m 293.45735,468.12595 10.93945,0 0,-3.19091 -10.93945,0 0,3.19091 z" />
      <path
         style="fill:#231f20;fill-opacity:1;fill-rule:evenodd;stroke:none"
         id="path64"
         inkscape:connector-curvature="0"
         d="m 293.45735,473.48145 10.93945,0 0,-2.6206 -10.93945,0 0,2.6206 z" />
      <path
         style="fill:#231f20;fill-opacity:1;fill-rule:evenodd;stroke:none"
         id="path66"
         inkscape:connector-curvature="0"
         d="m 305.53485,477.01408 c 0.115,0.56987 0.45625,0.91162 1.02625,1.36775 l -10.94,0 c -0.56875,-0.45613 -0.91125,-0.79788 -1.025,-1.36775 l 10.93875,0" />
      <path
         style="fill:#231f20;fill-opacity:1;fill-rule:evenodd;stroke:none"
         id="path68"
         inkscape:connector-curvature="0"
         d="m 308.8361,436.16208 0.99875,0 c 0.43375,0 0.91625,0.1625 0.91625,0.72 0,0.63 -0.5975,0.6875 -1.14625,0.6875 l -0.76875,0 0,0.27 0.94125,0 1.08875,1.67 0.34375,0 -1.08125,-1.66125 c 0.51625,-0.0825 0.93375,-0.36875 0.93375,-0.95875 0,-0.65375 -0.36,-0.99875 -1.17875,-0.99875 l -1.35875,0 0,3.61875 0.31125,0 0,-3.3475" />
      <path
         style="fill:#231f20;fill-opacity:1;fill-rule:evenodd;stroke:none"
         id="path70"
         inkscape:connector-curvature="0"
         d="m 309.63735,434.63958 c 1.695,0 3.0625,1.36625 3.0625,3.06125 0,1.695 -1.3675,3.06125 -3.0625,3.06125 -1.69375,0 -3.06125,-1.36625 -3.06125,-3.06125 0,-1.695 1.3675,-3.06125 3.06125,-3.06125 l 0.009,0.27 c -1.58,0 -2.75875,1.21125 -2.75875,2.79125 0,1.5475 1.195,2.79125 2.75875,2.79125 1.56375,0 2.7425,-1.2525 2.7425,-2.79875 0,-1.565 -1.17,-2.78375 -2.7425,-2.78375 l -0.009,-0.27" />
    </g>
  </g>
</svg>
