<svg version="1.1" id="Layer_1" xmlns:x="ns_extend;" xmlns:i="ns_ai;" xmlns:graph="ns_graphs;" xmlns="http://www.w3.org/2000/svg" xmlns:xlink="http://www.w3.org/1999/xlink" x="0px" y="0px" viewBox="0 0 667.9 125" style="enable-background:new 0 0 667.9 125;" xml:space="preserve">
 <style type="text/css">
  .st0{fill:#FFFFFF;}
 </style>
 <metadata>
  <sfw xmlns="ns_sfw;">
   <slices>
   </slices>
   <sliceSourceBounds bottomLeftOrigin="true" height="125" width="667.9" x="-360.2" y="33.7">
   </sliceSourceBounds>
  </sfw>
 </metadata>
 <g>
  <path class="st0" d="M65.5,33.2c9,0,17.6,4.7,22.3,11.4l0.5,0.5c0.2,0.2,0.5,0.5,0.5,0.7c3.1,4,8.1,6.4,13.5,6.4
		c9.5,0,17.3-7.8,17.3-17.3c0-4.5-1.7-8.5-4.5-11.6C103.2,8.5,88.9,0,65.2,0C28,0,0,25.9,0,62.1c0,36.8,28,62.6,65.5,62.6
		c24,0,38-8.3,49.8-21.6c2.6-3.1,4.3-6.9,4.3-11.1c0-9.5-7.6-17.1-17.1-17.1c-5.2,0-9.7,2.4-12.8,5.9C84,86.6,77.6,92,65.7,92
		c-17.1,0-26.8-12.3-26.8-29.9C38.7,45.3,48.1,33.2,65.5,33.2 M227,7.8c-5.9-3.1-10-3.8-18.7-3.1c-15.7,1.4-27.8,12.3-29.9,14.9v0.7
		v-0.7c-0.7-10-9-18-19.2-18c-10.7,0-19.2,8.5-19.4,19v84.7c0.2,10.4,8.8,18.7,19.4,18.7c10.7,0,19.2-8.5,19.4-19v-23
		c0-31.3,18.3-39.4,28.5-39.6c2.6,0,9.5,2.6,14.9,1.7c10.7-1.9,17.6-12.1,15.7-22.5C236.2,15.4,232.2,10.4,227,7.8 M311.9,93
		c16.8,0,26.8-12.3,27-30.1c0-18-10.2-30.1-27-30.1s-27.3,12.1-27.3,30.1C284.6,80.4,295.1,93,311.9,93 M311.9,0
		c37,0,65.7,26.1,65.7,62.6c0,36.3-28.7,62.1-65.7,62.1S246,98.9,246,62.6C246,26.1,274.9,0,311.9,0 M463,33.2
		c9,0,17.6,4.7,22.3,11.4l0.5,0.5c0.2,0.2,0.5,0.5,0.5,0.7c3.1,4,8.1,6.4,13.5,6.4c9.5,0,17.3-7.8,17.3-17.3c0-4.5-1.7-8.5-4.5-11.6
		C500.7,8.5,486.5,0,463,0c-37.2,0-65.5,25.9-65.5,62.1c0,36.8,28,62.6,65.5,62.6c24,0,38-8.3,49.8-21.6c2.6-3.1,4.3-6.9,4.3-11.1
		c0-9.5-7.6-17.1-17.1-17.1c-5.2,0-9.7,2.4-12.8,5.9C481.5,86.6,475.1,92,463,92c-17.1,0-26.8-12.3-26.8-29.9
		C436.4,45.3,445.9,33.2,463,33.2 M596.1,47.4c17.3,4,39.1,12.1,39.1,37.7c0,21.8-11.4,39.8-49.1,39.8c-23,0-38-7.1-48.4-16.4
		l-0.7-0.7c-0.5-0.2-0.7-0.7-0.9-0.9c-0.2-0.2-0.5-0.7-0.7-0.9c-0.5-0.5-0.7-0.9-0.9-1.4c0,0-0.2-0.2-0.2-0.5
		c-3.1-5.7-2.4-12.8,2.4-17.6c5.7-5.9,15.2-6.2,21.1-0.7l-0.2-0.2c7.6,5.9,16.6,9.5,26.3,9.5c12.3,0,16.4-2.4,16.4-7.4
		c0-6.6-7.6-6.6-27-11.6c-16.4-4.3-34.6-13.3-34.6-38.2c0-27,20.6-38,46.3-38c19.7,0,33.7,6.4,43.4,16.4c3.1,2.6,5,6.6,5,10.9
		c0,8.3-6.6,14.9-14.9,14.9c-4,0-7.6-1.4-10.2-4c-5.7-4.7-14-9-23-9c-8.5,0-12.8,2.4-12.8,7.1C572.1,42.9,579.7,43.9,596.1,47.4
		 M648,5.9V2.8h-12.6v3.1h4.5v12.3h3.8V5.9H648z M664.4,18.3V7.4l-4,10.9h-2.6l-4-10.9v10.9h-3.6V2.8h5.2l3.8,10.2L663,2.8h5v15.4
		H664.4z">
  </path>
 </g>
</svg>