<?xml version="1.0" encoding="UTF-8" standalone="no"?>
<!DOCTYPE svg PUBLIC "-//W3C//DTD SVG 1.1//EN" "http://www.w3.org/Graphics/SVG/1.1/DTD/svg11.dtd">
<svg width="100%" height="100%" viewBox="0 0 177 30" version="1.1" xmlns="http://www.w3.org/2000/svg" xmlns:xlink="http://www.w3.org/1999/xlink" xml:space="preserve" xmlns:serif="http://www.serif.com/" style="fill-rule:evenodd;clip-rule:evenodd;stroke-linejoin:round;stroke-miterlimit:1.41421;">
    <g>
        <path d="M24.962,8.577C23.089,7.488 20.962,6.526 18.632,6.526C12.76,6.526 8.608,9.999 8.608,14.937C8.608,19.917 12.506,23.516 18.632,23.516C20.962,23.516 23.342,22.469 25.165,21.382L24.101,28.998C22.684,29.626 19.595,30.044 18.025,30.044C7.443,30.044 0,24.018 0,15.105C0,6.596 7.323,0.105 17.718,0L18.306,0C20.13,0.028 22.023,0.287 23.645,0.918L24.962,8.577Z" style="fill:rgb(32,31,31);fill-rule:nonzero;"/>
        <path d="M41.97,7.781L49.869,7.781L49.869,29.375L42.578,29.375L42.578,26.445L42.477,26.445C40.958,29.291 37.869,30.044 35.692,30.044C28.553,30.044 26.173,26.278 26.173,20.921L26.173,7.868L34.072,7.868L34.072,20.461C34.072,22.972 35.642,24.185 38.021,24.185C40.401,24.185 41.97,22.972 41.97,20.461L41.97,7.781Z" style="fill:rgb(32,31,31);fill-rule:nonzero;"/>
        <rect x="51.795" y="7.781" width="7.898" height="21.594" style="fill:rgb(32,31,31);fill-rule:nonzero;"/>
        <path d="M64.592,22.637C66.161,23.935 68.085,24.604 70.313,24.604C71.629,24.604 73.857,24.436 73.857,22.888C73.857,19.917 61.705,22.888 61.705,14.142C61.705,9.33 66.414,7.112 71.579,7.112C74.718,7.112 77.959,8.367 80.237,10.125L75.882,13.765C74.769,13.054 73.199,12.552 71.731,12.552C70.769,12.552 69.047,12.719 69.047,13.849C69.047,17.448 81.199,13.849 81.199,22.805C81.199,27.533 76.085,30.044 70.971,30.044C66.566,30.044 64.085,29.333 60.591,27.115L64.592,22.637Z" style="fill:rgb(32,31,31);fill-rule:nonzero;"/>
        <rect x="82.609" y="7.781" width="7.899" height="21.594" style="fill:rgb(32,31,31);fill-rule:nonzero;"/>
        <path d="M100.07,10.376L100.171,10.376C102.196,7.865 104.779,7.112 106.955,7.112C114.095,7.112 116.474,10.878 116.474,16.235L116.474,29.375L108.576,29.375L108.576,16.695C108.576,14.184 107.007,12.97 104.626,12.97C102.247,12.97 100.677,14.184 100.677,16.695L100.677,29.375L92.778,29.375L92.778,7.796L100.07,7.796L100.07,10.376Z" style="fill:rgb(32,31,31);fill-rule:nonzero;"/>
        <path d="M129.197,25.022C131.323,25.022 133.095,23.976 133.095,22.176C133.095,20.419 131.323,19.373 129.197,19.373C127.019,19.373 125.247,20.419 125.247,22.176C125.247,23.976 127.019,25.022 129.197,25.022ZM122.361,8.074C124.386,7.488 127.323,7.112 129.5,7.112C135.981,7.112 140.437,9.33 140.437,14.644L140.437,29.375L133.551,29.375L133.551,27.575L133.45,27.575C131.93,29.5 129.652,30.044 126.969,30.044C121.095,30.044 117.905,26.864 117.905,22.261C117.905,17.909 122.209,15.188 127.222,15.188C129.197,15.188 131.424,15.816 133.095,16.821C133.146,16.611 133.146,16.402 133.146,16.151C133.146,13.18 131.475,12.552 128.083,12.552C125.753,12.552 123.373,13.054 121.246,13.849L122.361,8.074Z" style="fill:rgb(32,31,31);fill-rule:nonzero;"/>
        <path d="M142.472,7.752L149.459,7.752L149.459,11.518L149.56,11.518C151.08,7.752 153.877,7.42 158.181,7.42L158.181,13.55C154.231,13.508 150.371,14.866 150.371,18.088L150.371,29.345L142.472,29.345L142.472,7.752Z" style="fill:rgb(32,31,31);fill-rule:nonzero;"/>
        <path d="M176.515,23.807L175.365,30.034C175.011,30.075 174.759,30.044 174.354,30.044C167.367,30.044 163.671,27.282 163.671,21.549L163.671,13.514L159.134,13.514L159.134,7.638L163.671,7.638L163.671,3.806L171.569,1.295L171.569,7.638L176.076,7.638L176.076,13.514L171.569,13.514L171.569,21.047C171.569,23.181 173.121,23.767 175.349,23.767L176.515,23.807Z" style="fill:rgb(32,31,31);fill-rule:nonzero;"/>
        <rect x="51.85" y="1.645" width="7.717" height="4.406" style="fill:rgb(32,31,31);fill-rule:nonzero;"/>
        <rect x="82.488" y="1.645" width="7.717" height="4.406" style="fill:rgb(32,31,31);fill-rule:nonzero;"/>
    </g>
</svg>
