<svg xmlns="http://www.w3.org/2000/svg" viewBox="0 0 164.57 54.21" xmlns:xlink="http://www.w3.org/1999/xlink">
 <path d="M7.31,1.15H41.14a7.06,7.06,0,0,1,7.18,7v.52a7.17,7.17,0,0,1-7.18,7.17H7.31A7.27,7.27,0,0,1,0,8.72V8.2a7.17,7.17,0,0,1,7.31-7Z" style="fill: #fff;fill-rule: evenodd">
 </path>
 <path d="M0,27c0-3.84,3.59-6.66,7.56-6.66h30a7.16,7.16,0,0,1,7.18,7.18v.38a7.17,7.17,0,0,1-7.18,7.18H17.17A2,2,0,0,0,15.25,37V47a7.16,7.16,0,0,1-7.18,7.17H7.18A7.16,7.16,0,0,1,0,47V27Z" style="fill: #f4f4f5;fill-rule: evenodd">
 </path>
 <path d="M52.93,47,52.8,7.31A7.2,7.2,0,0,1,60,0h.77a7.28,7.28,0,0,1,7.18,7.31L68.06,47a7.17,7.17,0,0,1-7.18,7.17H60a7.06,7.06,0,0,1-7-7.17Z" style="fill: #f4f4f5;fill-rule: evenodd">
 </path>
 <path d="M144.19,4.74l16,26.15c3.59,5.64,4.36,7,4.36,11.28,0,6.53-6,11.53-11.28,11.53H131.63c-4,0-7.18-2.69-7.18-6.66v-.39a7.16,7.16,0,0,1,7.18-7.17H145c.77,0,1.28-.13,1.53-.65s.13-.89-.25-1.53L136.75,22c-.12-.25-.25-.64-.51-.64s-.51.39-.64.64L121.12,46.91c-2.31,4-5,6.79-8.85,6.79H84.46c-5.38,0-10.64-5.12-10.64-10.51V7.31A7.17,7.17,0,0,1,81,.13h.9a7.17,7.17,0,0,1,7.18,7.18V36.66A1.88,1.88,0,0,0,91,38.58h13.84c2.44,0,3.85-.9,5.13-3.08L128.55,4.74A9,9,0,0,1,136.5.26a8.63,8.63,0,0,1,7.69,4.48Z" style="fill: #f4f4f5;fill-rule: evenodd">
 </path>
 <path d="M7.31,1.15H41.14a7.06,7.06,0,0,1,7.18,7v.52a7.17,7.17,0,0,1-7.18,7.17H7.31A7.27,7.27,0,0,1,0,8.72V8.2a7.17,7.17,0,0,1,7.31-7Z" style="fill: #ed1c24;fill-rule: evenodd">
 </path>
 <title>
 </title>
</svg>