<svg width="100" height="37" viewBox="0 0 100 37" fill="none" xmlns="http://www.w3.org/2000/svg">
<g clip-path="url(#clip0)">
<path d="M96.8403 8.29527C83.2802 3.36872 66.8861 0.493164 49.2239 0.493164C31.9083 0.493164 15.8121 3.25785 2.40438 8.00425C2.01635 8.14283 1.62833 8.28141 1.2403 8.41999C2.60532 8.0874 3.99113 7.77559 5.3908 7.47764C5.26608 7.51922 5.13442 7.56079 5.01663 7.60237C2.77855 8.04583 1.10172 8.46157 0 8.81495V28.4103C0.554324 28.5835 1.12943 28.7498 1.71147 28.9092C1.55211 28.8745 1.39274 28.8399 1.2403 28.7983C14.8767 33.8011 31.4024 36.7321 49.2239 36.7321C66.6574 36.7321 82.8575 33.9258 96.3207 29.1171C97.6095 28.7983 98.8498 28.4657 100.007 28.0985V9.29305C98.6003 8.8496 96.4038 8.18441 96.8403 8.29527Z" fill="white"/>
<path d="M50.0555 32.6649C33.4743 32.6649 12.8604 32.159 0.277222 28.2095V9.02295C5.57101 7.39462 22.4571 4.4082 50.0555 4.4082C71.9443 4.4082 89.1076 6.16818 99.7298 9.49412V27.8907C89.4748 31.1058 73.2193 32.6649 50.0555 32.6649Z" fill="#9E1B30"/>
<path d="M7.85064 11.3853C8.1278 11.912 8.25253 12.1753 8.44654 13.1869L9.02165 16.5128L9.29881 18.1758L9.76999 21.1276C9.76999 21.1207 9.82542 21.474 9.82542 21.474C10.4421 25.6245 10.4698 25.7839 10.5322 26.8856L10.553 27.239L10.9064 27.1905C11.5438 27.1004 12.1466 27.0796 12.9712 27.0796L15.2301 27.2044L15.2786 26.8856C15.3617 25.8532 15.4379 25.5067 15.7705 24.0516L15.8329 23.7606C15.8329 23.7606 16.7683 19.527 17.2187 17.4552C17.4474 18.7994 17.7176 20.3515 17.7176 20.3515C18.3966 24.9732 18.459 25.4582 18.5629 26.8787L18.5907 27.1974L20.8703 27.0727L23.3994 27.1974L23.441 26.8787C23.5241 25.5622 23.6489 24.9524 24.4388 21.2939C24.4388 21.287 25.0693 18.5223 25.0693 18.5223L25.3188 17.4275C25.7761 15.4319 26.2057 13.5472 26.566 12.4039L27.1965 10.8934L26.663 10.9072L25.0624 11.0389C25.0832 11.0389 24.03 10.9973 24.03 10.9973L22.7412 10.8657L22.8174 11.3438L22.9352 11.9812C22.9352 13.1453 22.4501 15.7853 21.9097 18.6123C21.9097 18.6123 21.681 19.8734 21.4662 21.086C21.2722 19.9427 21.0782 18.7786 21.0782 18.7786L20.2675 13.5403L20.1428 12.6395C20.1428 12.6118 19.9834 10.8865 19.9834 10.8865L19.6508 10.9072L19.4499 10.928L17.6622 11.0389L16.4981 10.9973L15.1885 10.8795L15.1816 11.219C15.1123 12.5356 14.3501 16.2565 14.0244 17.7947C14.0244 17.7947 13.6988 19.4161 13.4077 20.892C13.2484 19.6517 13.0821 18.3698 13.0821 18.3698C12.5347 14.4341 12.3892 12.2445 12.3892 12.0921L12.5485 10.8795L12.1189 10.9142C11.6062 10.9973 11.2944 11.0389 10.2689 11.0389L9.01472 10.9973L7.6012 10.8449L7.85064 11.3853Z" fill="black"/>
<path d="M28.0072 11.3716C28.3398 11.8705 28.4922 12.0991 28.5338 13.6651L28.5823 17.2474V20.7189C28.5823 21.779 28.5823 24.5922 28.4714 25.4791C28.3952 26.1166 28.2705 26.3175 28.0626 26.6571L27.737 27.1975L28.3467 27.1906C29.6909 27.0936 31.6934 27.0797 33.6613 27.0797L37.2713 27.1698L37.9781 27.2045L37.9642 26.8095C37.9434 26.2968 37.9088 25.5207 38.276 23.8023L38.4562 22.95L37.7564 23.4766C37.3129 23.8092 37.0912 23.9755 36.1835 24.1002C36.1904 24.1002 34.5482 24.1834 34.5482 24.1834C33.2871 24.1834 32.9476 24.1072 32.8575 24.0587C32.6566 23.9963 32.6566 23.4351 32.6566 22.659C32.6566 22.659 32.6566 20.7812 32.6566 20.2893C35.3936 20.1992 36.1765 20.2546 36.62 20.5664L37.2505 21.0099L37.1189 20.0953L37.008 18.8203L37.1258 17.3583L37.2505 16.5199L36.62 16.9703C36.4121 17.1158 36.0587 17.2821 35.1302 17.2821C35.1302 17.2821 33.1693 17.2821 32.6566 17.2821C32.6566 16.7832 32.6566 14.5104 32.6566 14.0116C32.809 14.0116 33.2178 13.9977 33.2178 13.9977C34.1255 13.97 35.643 13.9215 36.329 14.0531C36.8902 14.164 36.9734 14.2541 37.1951 14.5174L37.888 15.3142L37.7494 14.0323L37.6871 13.0484C37.6871 12.1476 37.8049 11.5379 37.8603 11.2399L37.9434 10.8103L37.5069 10.8519C35.7539 11.0251 33.5296 11.0251 32.1993 11.0251L30.1483 10.9766C30.1552 10.9766 28.3259 10.845 28.3259 10.845L27.6538 10.7965L28.0072 11.3716Z" fill="black"/>
<path d="M39.7589 11.3783C39.9737 11.8148 40.1746 12.2306 40.1746 13.7481V15.7505C40.1746 15.7644 40.2024 18.1757 40.2024 18.1757L40.2162 21.6818C40.2162 25.1186 40.2162 25.6452 39.7866 26.7539L39.6065 27.2251L42.4959 27.0657L45.1289 27.2251L44.921 26.7331C44.637 26.1095 44.5053 25.8185 44.436 24.0377L44.3944 20.4207V17.2334L44.4637 13.8589C44.5053 12.2652 44.6716 11.898 44.9072 11.3783L45.1289 10.8864L42.4127 11.0527L41.0685 11.0111L39.5233 10.8725L39.7589 11.3783Z" fill="black"/>
<path d="M62.2367 10.9211L60.2412 11.0181L58.7999 10.9766L57.4141 10.8657L57.3587 11.1429C56.8529 13.3809 56.6727 14.1431 55.0305 19.5617C54.885 19.0558 54.7464 18.5431 54.7464 18.5431C54.1228 16.4436 53.4022 13.5403 52.9102 11.1429L52.8479 10.8518L52.4529 10.8934L50.2079 11.0112L48.4272 10.9696L47.3739 10.8934L46.6256 10.8449L46.9028 11.3646C47.2631 12.0367 47.3116 12.2584 47.3116 14.5797L47.1799 20.3862C47.0898 22.1739 46.979 24.4051 46.8058 25.6038L46.487 26.7471L46.3623 27.1905L46.8751 27.1836L48.7251 27.0589L50.3326 27.1698L51.0117 27.2529L50.8246 26.7471C50.6167 26.172 50.5544 25.9987 50.5544 24.4189V18.1204C50.5544 18.1204 50.5613 17.58 50.5682 17.2058C50.9008 18.3907 51.2334 19.5755 51.2334 19.5755L52.1758 22.9153L52.3421 23.4835C52.9795 25.7008 53.0627 25.9918 53.229 26.851L53.2844 27.1351L54.497 27.052L55.7304 27.1351L55.8066 26.851C56.0006 25.777 56.1115 25.4098 56.9914 22.5689L57.0538 22.3541L57.9615 19.5478C57.9615 19.5478 58.308 18.3907 58.6544 17.2404C58.6406 18.7995 58.6267 20.4486 58.6267 20.4486L58.6198 20.7604C58.592 22.0423 58.5297 25.0356 58.4465 25.7424C58.3842 26.2205 58.3287 26.3729 58.1763 26.7332L57.9754 27.2113L60.4075 27.0728L63.2899 27.2044L63.0613 26.7124C62.8673 26.3036 62.7564 26.0819 62.6663 24.3289C62.6663 24.3219 62.5555 20.4832 62.5555 20.4832L62.507 17.7116C62.507 16.4574 62.507 13.5126 62.6386 12.4317C62.701 11.8288 62.8049 11.6071 62.9366 11.3577L63.2345 10.8241L62.2367 10.9211Z" fill="black"/>
<path d="M67.7037 11.1498L67.6898 11.2398C67.5166 12.1891 67.3156 13.27 66.1862 17.379L65.3963 20.2199L65.2577 20.698L64.1006 24.5436C63.7195 25.7215 63.6155 25.9502 63.2206 26.7193L62.9573 27.239L65.2439 27.0658C66.3802 27.0658 66.8583 27.1073 67.3434 27.1905L67.7522 27.2598L67.7245 26.844C67.7175 26.7055 67.7037 26.5669 67.7037 26.4144C67.7037 25.9156 67.8076 25.1672 68.2788 23.4072C68.6876 23.4072 71.0365 23.4072 71.4731 23.4072C71.5147 23.622 71.5562 23.8576 71.5562 23.8576C71.8057 25.1811 71.8958 25.68 71.8958 26.1927C71.8958 26.2828 71.8958 26.3729 71.8888 26.4699L71.7987 27.2459L72.2214 27.1905C72.7827 27.1073 73.6419 27.0588 74.4179 27.0588L77.044 27.2182L76.8985 26.7401C76.3511 25.4305 76.1086 24.7584 75.0554 20.4277L74.2932 17.282L72.8866 10.8795L72.5956 10.8864L72.2976 10.9142L70.3783 10.9973L68.9855 10.9557L67.7591 10.8657L67.7037 11.1498ZM69.9695 15.7506C70.2882 17.3859 70.7525 19.7695 70.8495 20.2822C70.3714 20.2822 69.4221 20.2822 68.9301 20.2822C69.0548 19.7626 69.5953 17.379 69.9695 15.7506Z" fill="black"/>
<path d="M85.7192 11.3646C85.9271 11.7942 86.0449 12.0298 86.1073 13.5126L86.1835 17.3859L86.1974 18.5431C86.1974 18.5431 86.1974 19.236 86.1974 19.922C85.7539 18.945 85.2827 17.8987 85.2827 17.8987C85.2827 17.9056 84.5898 16.3119 84.5898 16.3119L82.3032 10.8657L82.0538 10.8865L81.8875 10.9073L79.8503 11.0181L78.5269 10.9766L76.7253 10.8449L77.0094 11.3715C77.2935 11.8912 77.4667 12.203 77.5291 13.7135L77.5984 17.7947L77.5776 20.2753C77.5568 22.9222 77.4737 24.8139 77.3975 25.4652C77.3351 26.0957 77.2589 26.3383 77.1342 26.7263L76.9886 27.1836L77.4737 27.1905L79.5247 27.0589L81.0006 27.1697L81.7143 27.2668L81.4856 26.7332C81.3193 26.3452 81.2154 26.1096 81.1738 24.7377L81.1045 19.9497C81.1045 19.9497 81.1045 18.5777 81.1045 17.3998C81.6658 18.5847 82.3794 20.0883 82.3794 20.0883C82.3794 20.0813 82.7605 20.9267 82.7605 20.9267C84.576 24.9455 84.8115 25.4583 85.4005 26.9827L85.4975 27.239L85.7678 27.1905C86.3498 27.0866 86.7932 27.0658 87.3684 27.0658C87.9504 27.0658 88.7265 27.0797 89.5926 27.1975L90.1261 27.2668L89.946 26.7679C89.7589 26.2343 89.6965 25.9502 89.6757 24.606V20.8505L89.7173 17.8987C89.7589 15.6329 89.8282 13.1869 89.9875 12.2723C89.9875 12.2792 90.2301 11.427 90.2301 11.427L90.4379 10.8588L89.8975 10.9003L88.2484 11.0251L86.9457 10.9835L86.3983 10.935L85.4698 10.838L85.7192 11.3646Z" fill="black"/>
<path d="M23.4481 20.8506C22.6652 24.4883 22.5266 25.1535 22.4365 26.5324C21.8752 26.4631 21.2932 26.4216 20.1984 26.4216C19.4778 26.4216 18.8265 26.4631 18.2236 26.5324C18.1128 25.0704 18.0435 24.5576 17.3714 19.9221L16.5884 15.3281L14.8353 23.3381C14.4542 25.0427 14.3642 25.403 14.2741 26.5324C13.7128 26.4631 13.1793 26.4216 12.2993 26.4216C11.4055 26.4216 10.8165 26.4423 10.1929 26.5324C10.1236 25.3753 10.1028 25.2436 9.43068 20.6982L8.9595 17.7256C8.44675 14.5729 8.30817 13.686 8.10723 12.6882C7.90629 11.6211 7.7677 11.337 7.47668 10.7827C7.7677 10.8243 7.98943 10.845 8.30817 10.8728C8.61998 10.8935 9.02879 10.9143 9.58311 10.9143C10.6155 10.9143 10.9481 10.8728 11.4886 10.7827C11.4193 11.046 11.3777 11.2469 11.3777 11.6488C11.3777 11.829 11.5371 14.0878 12.0706 18.0166L12.6527 22.569L13.6643 17.4623C14.0038 15.8617 14.766 12.1338 14.8284 10.7827C15.1887 10.8035 15.4589 10.845 15.7915 10.8728C16.1033 10.8935 16.4914 10.9143 16.9833 10.9143C17.9257 10.9143 18.3969 10.845 18.9997 10.7827C19.0205 11.337 19.0482 11.5172 19.1313 12.2447C19.6025 15.5776 19.6441 15.9518 20.0737 18.4393L20.7666 22.6591L21.5496 18.2868C22.09 15.4459 22.582 12.7575 22.582 11.538C22.582 11.1846 22.5335 11.0252 22.4504 10.7827C22.7622 10.8243 23.0116 10.845 23.3234 10.8728C23.6144 10.8935 23.954 10.9143 24.3974 10.9143C25.1388 10.8728 25.6308 10.8243 26.0119 10.7827C25.8109 11.1569 25.7209 11.337 25.5615 11.8705C25.1319 13.2494 24.5984 15.7092 24.0579 18.0651L23.4481 20.8506Z" fill="white"/>
<path d="M31.659 22.2919C31.659 23.4422 31.659 23.8856 32.0401 24.0034C32.3519 24.1559 33.4536 24.1559 33.8763 24.1559C34.4375 24.1559 34.9988 24.1351 35.56 24.0658C36.544 23.9341 36.8142 23.7332 37.2854 23.3798C36.9043 25.2021 36.9458 25.999 36.9666 26.5325C36.0936 26.4909 35.172 26.4216 32.9963 26.4216C30.6404 26.4216 28.8943 26.4424 27.6609 26.5325C27.8827 26.1583 28.042 25.9089 28.1321 25.1744C28.243 24.2667 28.243 21.4466 28.243 20.3379V16.8318L28.1945 13.2149C28.1529 11.6143 27.9935 11.3094 27.6124 10.7274C28.1737 10.7689 28.8042 10.8174 29.4556 10.859C30.1277 10.8798 30.8275 10.9006 31.5204 10.9006C32.8646 10.9006 35.0889 10.9006 36.8558 10.7204C36.7865 11.0738 36.6756 11.6974 36.6756 12.6051C36.6756 13.1387 36.7241 13.4228 36.7657 13.8662C36.5162 13.5752 36.3846 13.4228 35.7125 13.2911C34.7701 13.1179 32.4835 13.2495 31.8738 13.2495H31.6521V17.1991H34.4514C35.4838 17.1991 35.8857 16.9981 36.1352 16.818C36.0659 17.2822 35.9966 17.7049 35.9966 18.4186C35.9966 19.063 36.0659 19.4372 36.1352 19.9083C35.5739 19.5065 34.7424 19.4649 31.6521 19.5758V22.2919H31.659Z" fill="white"/>
<path d="M43.4108 20.0261C43.4108 21.4673 43.4108 22.3542 43.4593 23.6846C43.5217 25.507 43.6603 25.8396 43.9721 26.5255C43.2792 26.4355 42.7179 26.3939 41.8379 26.3939C40.8263 26.3939 40.1334 26.4562 39.4405 26.5255C39.8909 25.3476 39.8909 24.8141 39.8909 21.2872C39.8424 18.0721 39.9116 16.6031 39.8424 15.3143V13.2911C39.8424 11.739 39.6414 11.2678 39.392 10.762C39.7523 10.8035 40.0156 10.8243 40.3759 10.852C40.7085 10.8728 41.1173 10.8936 41.7478 10.8936C42.8704 10.8936 43.2237 10.852 43.9444 10.762C43.7018 11.3163 43.5217 11.739 43.4732 13.3811C43.4039 14.6007 43.4039 15.6469 43.4039 16.7972V20.0261H43.4108Z" fill="white"/>
<path d="M61.6895 24.0033C61.7796 25.798 61.8904 26.0682 62.1122 26.5324C61.5509 26.4909 60.3175 26.4216 59.7563 26.4216C58.9248 26.4216 58.412 26.4632 57.8231 26.5324C57.9824 26.1583 58.0517 25.9781 58.1141 25.4446C58.2042 24.6477 58.2735 21.1139 58.2943 20.0746L58.3358 14.5244C57.8439 16.3883 57.733 16.7209 56.8807 19.3609L56.07 21.89C55.1277 24.9803 55.0168 25.3268 54.8159 26.4632C54.5041 26.4216 54.0745 26.4008 53.825 26.4008C53.534 26.4008 53.1945 26.4216 52.8827 26.4632C52.7025 25.5069 52.6124 25.2229 51.8295 22.4651L50.8871 19.0907C50.2774 17.0466 50.1249 16.4923 49.6052 14.4967L49.5637 17.7187V24.0657C49.5637 25.6871 49.626 25.9088 49.8547 26.5324C49.3142 26.4632 48.8708 26.4008 48.0601 26.4008C47.1385 26.4008 46.6465 26.4632 46.1338 26.5324C46.2932 26.1098 46.404 25.7356 46.4733 25.3129C46.6535 24.0934 46.7643 21.8276 46.8544 20.0122L46.9861 14.1502C46.9861 11.8221 46.9445 11.5103 46.5357 10.755C46.8752 10.7758 47.2563 10.7966 47.7483 10.8451C48.2402 10.8659 48.843 10.8936 49.5429 10.8936C50.6862 10.8936 51.2682 10.8243 51.9195 10.7619C52.3907 13.0901 53.1113 16.0419 53.7627 18.2453L54.3447 20.3795C56.2918 13.9216 56.4511 13.2564 57.0124 10.7689C57.3935 10.7896 57.733 10.8382 58.1141 10.8589C58.516 10.8797 58.9664 10.9074 59.5692 10.9074C60.7333 10.9074 61.2045 10.8382 61.9874 10.7758C61.8281 11.0668 61.7172 11.3301 61.6548 11.9745C61.5232 13.0832 61.5232 16.0834 61.5232 17.3445L61.5648 20.1439L61.6895 24.0033Z" fill="white"/>
<path d="M74.0718 20.1161C75.1042 24.3983 75.3467 25.1328 75.9357 26.5324C75.3052 26.4632 74.7023 26.4008 73.76 26.4008C73.0394 26.4008 72.1455 26.4424 71.515 26.5324L71.5635 26.1583C71.612 25.3753 71.4942 24.911 71.0923 22.7145H67.3645C66.6715 25.2921 66.6923 25.8673 66.7339 26.5324C66.2212 26.4424 65.7223 26.4008 64.579 26.4008C63.8168 26.4008 63.4565 26.4424 62.8536 26.5324C63.2555 25.7356 63.3664 25.4931 63.7475 24.2874C64.288 22.6245 64.5998 21.495 65.0501 19.9152L65.8331 17.0466C66.9972 12.7644 67.1774 11.7181 67.3575 10.7411C67.607 10.7619 67.9188 10.7827 68.2999 10.8104C68.681 10.8312 69.1522 10.852 69.7134 10.852C70.7874 10.852 71.3694 10.7827 71.9584 10.7411C72.2494 12.314 72.291 12.5427 73.3027 16.9357L74.0718 20.1161ZM70.5934 20.227L69.3392 13.7276L67.8564 20.227H70.5934Z" fill="white"/>
<path d="M88.6712 20.4488C88.6504 22.0494 88.6504 22.4928 88.6712 24.2459C88.692 25.6178 88.7612 25.9574 88.9622 26.5325C88.1307 26.4216 87.3685 26.4008 86.6964 26.4008C86.1144 26.4008 85.6432 26.4216 85.0334 26.5325C84.4029 24.8903 84.1604 24.3567 82.0054 19.5618L80.1 15.5222V19.5618C80.1 21.5366 80.1207 22.9363 80.1692 24.4052C80.2177 25.8465 80.3286 26.1167 80.5018 26.5325C80.0099 26.4632 79.608 26.4008 78.8458 26.4008C77.9727 26.4008 77.363 26.4632 76.7602 26.5325C76.8987 26.1098 76.9888 25.8396 77.0512 25.1536C77.1205 24.53 77.2105 22.6661 77.2313 19.8944L77.2521 17.3861C77.2521 15.9241 77.2521 14.6145 77.1828 13.2564C77.1205 11.7043 76.9403 11.3232 76.6216 10.7481C77.0928 10.7897 77.4531 10.8174 77.8342 10.8382C78.2153 10.859 78.6449 10.8867 79.1784 10.8867C80.3425 10.8867 80.8206 10.8174 81.4234 10.755C82.1856 12.7714 82.6083 13.7068 84.3197 17.6356L85.8649 21.0793V18.1483C85.8441 16.2428 85.8441 14.864 85.7748 13.0624C85.7055 11.4895 85.5739 11.2193 85.3452 10.755C85.6155 10.7758 85.8857 10.8243 86.246 10.8451C86.5855 10.8659 87.0082 10.8936 87.5695 10.8936C88.4217 10.8936 88.7405 10.8451 89.274 10.762C89.1631 11.0738 89.0731 11.2955 88.983 11.7597C88.8236 12.6952 88.7543 15.1342 88.7127 17.4831L88.6712 20.4488Z" fill="white"/>
<path d="M91.9902 24.0726C91.9902 23.1718 92.6554 22.4928 93.5146 22.4928C94.3599 22.4928 95.0251 23.1718 95.0251 24.0726C95.0251 24.9872 94.3599 25.6663 93.5146 25.6663C92.6554 25.6663 91.9902 24.9872 91.9902 24.0726ZM93.5146 25.985C94.5332 25.985 95.4062 25.1813 95.4062 24.0795C95.4062 22.9848 94.5332 22.181 93.5146 22.181C92.4891 22.181 91.616 22.9848 91.616 24.0795C91.6091 25.1813 92.4821 25.985 93.5146 25.985ZM93.1196 24.2251H93.4938L94.055 25.1813H94.4154L93.8125 24.2181C94.1313 24.1766 94.3669 24.0033 94.3669 23.6084C94.3669 23.1718 94.1105 22.9848 93.6047 22.9848H92.787V25.1882H93.1196V24.2251ZM93.1196 23.941V23.255H93.5631C93.7917 23.255 94.0343 23.3035 94.0343 23.5737C94.0343 23.9132 93.7848 23.934 93.5076 23.934H93.1196" fill="white"/>
<path d="M49.321 34.2167C31.8598 34.2167 15.4588 32.2488 1.24036 28.7982C14.8767 33.8009 31.4025 36.7319 49.224 36.7319C66.8861 36.7319 83.2803 33.8564 96.8404 28.9367C82.7606 32.2973 66.5605 34.2167 49.321 34.2167Z" fill="#C7C7C7"/>
<path d="M96.8404 8.29527C83.2803 3.36872 66.8861 0.493164 49.224 0.493164C31.4025 0.493164 14.8767 3.42415 1.24036 8.41999C15.4588 4.97626 31.8529 3.00841 49.321 3.00841C66.5605 3.00841 82.7606 4.92775 96.8404 8.29527Z" fill="#C7C7C7"/>
</g>
<defs>
<clipPath id="clip0">
<rect width="100" height="36.2389" fill="white" transform="translate(0 0.493164)"/>
</clipPath>
</defs>
</svg>
