<?xml version="1.0" encoding="UTF-8"?>
<svg id="Layer_1" width="2648.1" height="1e3" data-name="Layer 1" version="1.1" viewBox="0 0 2648.1 1e3" xmlns="http://www.w3.org/2000/svg" xmlns:cc="http://creativecommons.org/ns#" xmlns:dc="http://purl.org/dc/elements/1.1/" xmlns:rdf="http://www.w3.org/1999/02/22-rdf-syntax-ns#">
 <metadata id="metadata1003">
  <rdf:RDF>
   <cc:Work rdf:about="">
    <dc:format>image/svg+xml</dc:format>
    <dc:type rdf:resource="http://purl.org/dc/dcmitype/StillImage"/>
    <dc:title/>
   </cc:Work>
  </rdf:RDF>
 </metadata>
 <defs id="defs996">
  <style id="style994">.cls-1{fill:#000;}</style>
 </defs>
 <path id="path998" class="cls-1" d="m593.52 820.49c12.469 12.173 23.52 12.469 6.4684 24.782-16.787 12.22-49.019-1.2157-65.463-11.331-14.542-8.8999-26.497-22.024-32.046-38.109-29.614-84.946-40.93-178.25-51.763-267.45-11.472-94.314-23.021-190.15-30.129-284.83-8.6193 41.335-16.428 85.164-24.143 120.73-15.664 72.103-25.733 137.16-42.006 211.04-3.8966 17.737-22.46 49.581-36.753 62.346-9.5545 8.5258-13.171 11.861-25.125 16.35-14.184 5.315-33.121-5.8917-37.298-19.966-14.979-50.329-22.055-104.62-32.732-155.97-11.565-55.098-23.177-109.25-33.682-164.55 0-0.29614-90.105 305-107 336.37-9.3519 17.332-21.992 31.001-39.995 39.512-8.2608 3.9278-29.879 9.6948-37.766 2.79-9.5701-8.3699 0.2338-29.692 3.3511-39.465 22.616-71.09 33.168-118.46 51.217-188.71 19.873-77.434 38.327-179.99 54.256-258.3 3.6161-17.769 6.9983-40.821 10.365-58.496 1.9795-10.334 4.6759-22.725 10.755-31.563 28.274-41.522 63.016-12.469 106.97 5.0188 23.021 9.1804 49.503 288.58 55.644 334.94 20.995-44.795 66.102-328.41 100.8-401.79 8.6505-18.267 120.59-2.26 121.79 43.408 1.5586 59.961 1.3093 131.53 4.2083 191.43 4.8162 99.753 8.8064 192.31 16.802 291.89 3.507 43.767 8.4167 86.598 13.825 130.16 3.959 31.843 9.7727 67.022 26.902 94.205 3.5376 5.6831 7.7507 10.917 12.547 15.586m285.48-216.65c-9.2972-3.061-19.349-2.9404-28.57 0.3429-9.2927 3.4966-17.197 9.9187-22.522 18.298-4.8786 7.6374-3.5693 19.015-0.49876 27.105 3.3355 8.8063 13.404 15.68 21.821 18.454 9.3016 3.0262 19.34 2.9112 28.57-0.32732 8.6021-3.024 16.045-8.6583 21.291-16.116 2.8059-4.6375 4.3382-9.9334 4.4421-15.353 0.3377-5.414-0.85032-10.814-3.429-15.586-4.9356-7.8209-12.358-13.755-21.073-16.849m-71.589-125.1c3.5693-7.7932 42.083-73.584 36.971-78.104-2.4315-2.1042-4.2863-4.4577-6.7022-5.6423-52.885-25.811-86.302 20.824-126.11 48.1-1.4278 0.75007-2.9473 1.3107-4.5201 1.6678-0.88843-0.5767-1.2625-0.70139-1.4184-0.93518-9.9286-16.163-18.595-35.085-21.915-53.851 0.82608-2.8523 1.8392-6.1099 2.7276-9.3519 5.5332-20.574 10.708-41.179 14.838-62.081 4.3486-21.977 5.5332-44.499 6.4372-66.819 0.19345-2.887-0.84918-5.7203-2.8679-7.7932-3.2108-0.90402-6.5931-2.4003-10.116-2.7744-7.9491-0.84167-15.914-1.5586-23.878-1.5586-39.153-0.60787-57.826 40.01-65.806 72.461-2.2832 8.3403-3.8476 16.861-4.6759 25.468-0.62346 9.009 1.5586 16.522 3.4758 25.125 0.70139 3.0394 1.2157 6.1255 1.9951 9.1492 2.0886 8.2141 4.6759 16.319 6.9048 24.455 3.7719 13.233 11.129 31.625 7.2477 45.544-0.90402 3.2732-1.8548 7.31-3.1173 11.207-3.3823 10.162-50.157 121.18-47.819 122.03 2.9335 1.0147 6.0328 1.4643 9.1337 1.3248 16.974-0.60787 36.535-16.085 43.923-29.879 2.79-5.3929 24.533-66.819 28.773-66.18 17.61 2.3777 35.479 2.0623 52.994-0.93518 3.3199-0.52994 31.594-6.1255 29.988-1.9483-12.843 33.558-25.827 67.38-34.166 102.42-6.9672 29.349-17.55 72.165-1.0287 99.753 15.166 25.375 57.67 39.496 83.45 20.792 12.874-9.3519 8.9934-12.812 1.1846-17.597-5.9852-3.6628-19.203-13.358-23.271-18.938-15.82-21.696-7.4815-51.731-1.2469-75.407 10.24-38.966 31.937-73.35 48.536-109.67m993.85-30.44c-8.1362 4.9721-7.918 41.366-8.8843 49.362-4.1148 33.449-7.3724 67.022-10.661 100.52-11.02 112.38-30.752 345.66-99.379 388.35-16.802 10.443-40.057 15.244-59.556 12.796-11.16-1.3716-20.59-3.3355-31.921-11.924-2.5299-1.909-1.2803-5.9368 1.8859-6.0787 15.431-0.82609 33.464-6.0943 44.141-22.226 24.736-36.316 34.041-100.97 40.384-143.29 7.9335-52.745 30.752-328.11 28.274-338.72-57.67 15.586-94.563 8.5414-94.563 8.5414s-70.809 361.79-244.54 154.15c-47.336 53.68-103.74 82.484-158 82.951-353.3 3.1173-192.13-722.78 162.64-722.78 89.653 0 122.18 29.271 138.03 67.801 1.9144 4.6564 3.4775 9.4497 4.6759 14.34 4.1772 16.833 4.0058 31.048-7.5438 45.123-12.578 15.353-37.111 25.562-57.67 21.353-14.449-2.9302-14.558-15.259-15.259-26.029-0.6043-11.706-2.9255-23.259-6.8892-34.29-6.5463-17.441-19.81-29.614-39.169-29.209-27.822 0.48318-59.852 13.295-83.668 27.167-38.966 22.709-70.716 56.579-96.34 93.347-59.836 85.819-95.077 195.94-95.919 300.62-0.53 67.458 18.283 168.33 104.26 168.33 92.864 0.10911 113.42-57.67 119.81-67.863 34.29-55.176-6.0008-361.17 178.56-361.17 125.11 0 101.02 218.04 101.05 216.98 1.6677 0.14027 67.022-8.479 93.363-27.495 3.0082-81.704 11.035-374.89 141.26-374.89 133.72 0 163.55 91.96 92.817 91.96-15.852 0-29.225-22.616-45.201-22.616-51.778 0-86.692 248.59-86.598 267.2 3.6005-0.8105 7.0295-3.6005 9.9909-5.6423 5.1747-3.5537 10.178-7.3724 15.181-11.207 5.2994-4.0681 10.583-8.1985 15.914-12.251 7.4503-5.689 18.595-16.927 27.152-6.4528 2.3344 2.7726 3.9414 6.0831 4.6759 9.6324 0.1301 0.73171 0.2134 1.471 0.2494 2.2133 0.3273 6.936-4.0992 15.664-6.9827 21.915-3.0928 6.6504-6.7427 13.027-10.91 19.062-8.1056 11.562-17.439 22.212-27.837 31.765-11.273 10.783-23.613 20.393-36.831 28.679m-270.78 102.96c7.7932-28.773 12.469-62.969 12.812-70.669-17.145-2.6029-48.801-4.0681-97.166-36.535-11.877 33.682-32.451 194.3 23.785 194.3 14.604 0 43.86-24.938 60.569-87.097m17.613-120.36c0.9975-7.1542 5.876-164.09-21.977-164.09-30.658 0-52.417 76.95-52.448 107.76 0 31.407 29.474 56.407 74.425 56.329m1099.8 91.96c1.091 18.704-5.9384 37.408-14.994 53.524-5.0656 9.0246-10.91 17.566-16.693 26.185-13.373 20.122-30.783 37.641-48.692 53.711-31.968 28.648-71.495 49.487-112.83 49.487-63.904 0-110.48-48.147-117.09-55.363-0.4314-0.4279-1.1272-0.4279-1.5586 0-6.0943 6.6554-46.931 48.224-116.31 49.596-118.77 2.3536-154.87-115.53-162.82-147.84-0.1227-0.55435-0.6827-0.89463-1.2313-0.74815-7.2633 1.6833-35.677 8.2296-41.242 9.0713-0.5048 0.0648-0.8951 0.47457-0.9352 0.98194-0.1558 1.6522-0.4208 5.128-0.452 5.3929-9.5545 101.97-18.704 216.65-64.544 309.86-23.239 47.18-68.269 84.541-123.49 78.384-7.0918-0.79491-20.979-1.8704-35.849-11.113-2.9053-1.8327-1.8584-6.3033 1.5586-6.6554 27.058-2.525 51.17-18.392 66.788-40.883 18.096-26.061 25.094-58.184 28.788-89.7 10.271-87.627 14.901-174.97 17.145-263.41 0.023-0.4782-0.277-0.91259-0.7326-1.0599-3.3173-1.2564-6.5549-2.7138-9.6948-4.3642-5.3461-2.6497-10.474-5.1903-15.586-8.2296-5.1124-3.0394-10.006-6.1099-14.87-9.3519-4.4495-3.1153-8.6214-6.6093-12.469-10.443-4.3528-3.8821-8.1501-8.3454-11.285-13.264-1.0131-1.7613-2.5094-5.0656-1.278-7.0295 0.9663-1.5586 3.616-2.3536 5.2058-2.8056 9.2272-2.6497 19.701-0.40525 28.944 1.2158 10.692 1.8548 21.198 4.6759 31.781 6.9983 0.6987 0.13654 1.3497-0.39478 1.356-1.1066 0.8417-54.802 0.9819-96.106 2.073-107.7 8.1205-84.697 34.384-201.53 147.37-214.24 65.681-7.3724 140.04 87.502 68.877 87.502-20.262 0-31.438-25.344-47.414-25.344-28.056 0-27.869 10.194-41.709 28.056-15.774 20.387-21.712 62.346-23.38 87.986-3.2419 50.126-5.1747 63.811-5.0188 149.74 0 0.71698 12.189-2.0574 12.89-2.1042 13.108-1.091 19.67-2.6029 32.996-4.598 0.5371-0.063 0.9583-0.49071 1.0131-1.0287 3.694-48.973 33.121-206.61 159.93-206.61 124.27 0 57.233 209.62-75.922 249.82-0.4908 0.145-0.8149 0.61167-0.7793 1.1222 5.1903 52.682 33.62 115.01 84.634 115.01 41.507 0 73.895-49.082 77.574-54.225 0.2013-0.25876 0.2374-0.60969 0.093-0.90402-11.955-28.056-13.623-73.412-12.469-88.562 2.1918-27.472 7.5849-54.595 16.07-80.816 14.978-47.539 73.474-129.57 138.72-97.618 11.861 5.8138 15.072 8.0582 25.749 15.68 36.987 26.341 21.057 94.719 5.128 127.81-24.938 51.7-67.022 110.59-97.15 134.56-0.3032 0.24201-0.4473 0.63214-0.3741 1.0131 4.676 23.754 46.759 41.538 67.91 43.393 31.578 2.7588 61.302-13.467 84.323-32.529 25.983-21.509 48.786-50.874 67.91-78.79 5.6423-8.2452 10.911-17.145 16.007-25.749 2.3494-4.2145 5.1225-8.1784 8.2764-11.83 2.8456-3.574 7.0305-5.827 11.581-6.2346 5.6734-0.67022 12.017 3.507 14.542 8.3232 2.8212 5.3773 3.5382 11.783 3.8811 17.753m-426.74-184.96c-70.638 0-94.906 131.8-80.925 131.8 42.941 0 123.41-131.8 80.925-131.8m139.67 181.15c1.3712 5.7901 8.7164 7.6037 12.625 3.1173 14.464-16.74 31.313-46.978 35.319-54.662 10.536-20.262 20.512-40.525 24.689-63.156 0.9508-5.0656 6.3437-27.448-0.3897-30.191-12.298-5.0188-30.331 20.948-35.677 27.962-10.638 13.952-19.22 29.358-25.484 45.746-7.7932 20.512-16.023 49.316-11.066 71.183" stroke-width="1.5586"/>
</svg>
