<svg xmlns="http://www.w3.org/2000/svg" id="Layer_2" data-name="Layer 2" viewBox="0 0 160.6 104.52"><defs><style>      .cls-1 {        fill: #231f20;      }      .cls-1, .cls-2 {        stroke-width: 0px;      }      .cls-2 {        fill: #fff;      }    </style></defs><g id="Layer_1-2" data-name="Layer 1"><g><g><g><g><path class="cls-1" d="m28.25,69.01c-.24-.24-.5-.46-.78-.66,1.28,1.73,1.92,4.23,1.92,7.51v1.09c0,1.16-.16,2.21-.49,3.16-.33.94-.78,1.81-1.36,2.61-.58.8-1.27,1.54-2.07,2.23-.8.69-1.67,1.38-2.61,2.07l-11.7,8.43h3.46l9.69-6.99c.94-.69,1.81-1.38,2.61-2.07.8-.69,1.49-1.43,2.07-2.23.58-.8,1.03-1.67,1.36-2.61.33-.94.49-2,.49-3.16v-1.09c0-3.81-.86-6.57-2.59-8.3Z"></path><path class="cls-1" d="m17.77,74.04c.61,0,1.12.09,1.56.26-.44-1.13-1.43-1.71-3-1.71H1.09l1.45,1.45h15.24Z"></path><polygon class="cls-1" points="29.38 103.07 0 103.07 1.45 104.52 30.83 104.52 30.83 96.9 29.38 95.45 29.38 103.07"></polygon></g><g><g><polygon class="cls-1" points="35.32 94.34 35.16 94.62 35.32 94.78 35.32 94.34"></polygon><polygon class="cls-1" points="38.16 78.56 38.16 77.11 35.32 77.11 36.77 78.56 38.16 78.56"></polygon><polygon class="cls-1" points="46.69 72.69 46.69 77.11 43.85 77.11 43.85 90.38 45.3 90.38 45.3 78.56 48.14 78.56 48.14 74.14 46.69 72.69"></polygon><polygon class="cls-1" points="46.69 94.8 35.34 94.8 36.77 96.25 48.14 96.25 48.14 91.83 46.69 90.38 46.69 94.8"></polygon></g><g><polygon class="cls-1" points="63.12 84.87 56.99 74.14 55.54 72.69 63.12 85.96 63.12 84.87"></polygon><polygon class="cls-1" points="55.22 81.53 55.22 94.8 49.54 94.8 50.99 96.25 56.67 96.25 56.67 84.07 55.22 81.53"></polygon><polygon class="cls-1" points="68.81 72.69 68.81 94.8 62.81 94.8 64.25 96.25 70.26 96.25 70.26 74.14 68.81 72.69"></polygon></g></g><g><polygon class="cls-1" points="82.3 73.41 76.05 75.59 77.49 77.04 82.3 75.36 82.3 73.41"></polygon><polygon class="cls-1" points="92.1 64.98 92.1 103.07 82.3 103.07 83.75 104.52 93.55 104.52 93.55 66.43 92.1 64.98"></polygon></g></g><g><g><path class="cls-1" d="m115.47,36.41c5.54-2.53,8.93-8.08,8.93-14.75,0-5.6-2.2-9.68-5.5-12.42,2.32,2.65,3.78,6.19,3.78,10.74,0,6.67-3.39,12.23-8.93,14.75l9.5,21.18h-12.28l1.73,1.68h12.28l-9.5-21.18Z"></path><path class="cls-1" d="m94.71,15.06h11.09c1.78,0,3.25.46,4.39,1.2-1.18-1.67-3.22-2.89-6.11-2.89h-11.09v13.04h1.73v-11.36Z"></path><polygon class="cls-1" points="102.54 36.78 93.06 36.78 93.06 55.91 81.7 55.91 83.43 57.59 94.78 57.59 94.78 38.47 103.28 38.47 102.54 36.78"></polygon></g><g><polygon class="cls-1" points="132.59 13.9 124.75 13.9 126.48 15.58 132.59 15.58 132.59 13.9"></polygon><polygon class="cls-1" points="158.88 3.25 158.88 13.9 143.88 13.9 143.88 55.95 132.59 55.95 134.32 57.64 145.61 57.64 145.61 15.58 160.6 15.58 160.6 4.93 158.88 3.25"></polygon></g><g><path class="cls-1" d="m13.37,11.83h9.31c2.11,0,3.79.44,5.06,1.25-1.24-1.93-3.52-2.93-6.79-2.93h-9.31v14.26h1.73v-12.58Z"></path><path class="cls-1" d="m36.4,5.84c2.46,2.87,3.79,6.73,3.79,11.4,0,10.68-7.23,17.31-18.88,17.31h-9.66v21.36H.42l1.73,1.68h11.22v-21.36h9.66c11.65,0,18.88-6.63,18.88-17.31,0-5.66-1.96-10.11-5.51-13.08Z"></path></g><g><polygon class="cls-1" points="54.68 45.48 56.41 45.48 56.41 35.4 76.79 35.4 76.79 25.04 75.07 23.36 75.07 33.72 54.68 33.72 54.68 45.48"></polygon><polygon class="cls-1" points="78.28 55.91 43.39 55.91 45.12 57.59 80 57.59 80 47.16 78.28 45.48 78.28 55.91"></polygon><polygon class="cls-1" points="78.28 3.23 78.28 13.67 54.68 13.67 54.68 23.36 56.41 23.36 56.41 15.35 80 15.35 80 4.92 78.28 3.23"></polygon></g></g></g><g><g><path class="cls-2" d="m29.38,76.95c0,1.16-.16,2.21-.49,3.16-.33.94-.78,1.81-1.36,2.61-.58.8-1.27,1.54-2.07,2.23-.8.69-1.67,1.38-2.61,2.07l-11.7,8.43h18.23v7.62H0v-10.34l19.59-14.15v-2.72c0-2.18-1.09-3.27-3.27-3.27H1.09v-7.62h17.41c3.81,0,6.57.86,8.3,2.59,1.72,1.72,2.59,4.49,2.59,8.3v1.09Z"></path><path class="cls-2" d="m82.3,103.07v-29.66l-6.26,2.18-2.72-6.26,10.07-4.35h8.71v38.09h-9.79Z"></path></g><g><path class="cls-2" d="m122.67,19.97c0-11.56-9.34-16.74-18.6-16.74h-22.38v52.67h11.36v-19.12h9.48l8.42,19.12h12.28l-9.5-21.18c5.54-2.53,8.93-8.08,8.93-14.75Zm-11.29,0c0,4.16-2.54,6.45-7.17,6.45h-11.23v-13.04h11.09c4.8,0,7.31,3.32,7.31,6.59Z"></path><path class="cls-2" d="m114.03,3.25s8.03,2.88,10.47,9.96l.25.69h7.84v42.06h11.29V13.9h14.99V3.25h-44.84Z"></path><path class="cls-2" d="m21.3,0H.42v55.91h11.22v-21.36h9.66c11.65,0,18.88-6.63,18.88-17.31S33.12,0,21.3,0Zm7.52,17.31c0,4.64-2.72,7.09-7.88,7.09h-9.31v-14.26h9.31c5.15,0,7.88,2.48,7.88,7.16Z"></path><polygon class="cls-2" points="43.39 55.91 78.28 55.91 78.28 45.48 54.68 45.48 54.68 33.72 75.07 33.72 75.07 23.36 54.68 23.36 54.68 13.67 78.28 13.67 78.28 3.23 43.39 3.23 43.39 55.91"></polygon></g></g><g><path class="cls-2" d="m46.69,94.8h-11.37v-4.42h2.84v-13.27h-2.84v-4.42h11.37v4.42h-2.84v13.27h2.84v4.42Z"></path><path class="cls-2" d="m68.81,94.8h-6l-7.58-13.27v13.27h-5.69v-22.11h6l7.58,13.27v-13.27h5.69v22.11Z"></path></g></g></g></svg>