<?xml version="1.0" encoding="UTF-8" standalone="no"?>
<!-- Created with Inkscape (http://www.inkscape.org/) -->

<svg
   xmlns:dc="http://purl.org/dc/elements/1.1/"
   xmlns:cc="http://creativecommons.org/ns#"
   xmlns:rdf="http://www.w3.org/1999/02/22-rdf-syntax-ns#"
   xmlns:svg="http://www.w3.org/2000/svg"
   xmlns="http://www.w3.org/2000/svg"
   xmlns:sodipodi="http://sodipodi.sourceforge.net/DTD/sodipodi-0.dtd"
   xmlns:inkscape="http://www.inkscape.org/namespaces/inkscape"
   width="26.700001"
   height="8.6999998"
   viewBox="0 0 26.700001 8.6999999"
   id="svg19075"
   version="1.1"
   inkscape:version="0.91 r13725"
   sodipodi:docname="rubbermaid.svg">
  <defs
     id="defs19077" />
  <sodipodi:namedview
     id="base"
     pagecolor="#ffffff"
     bordercolor="#666666"
     borderopacity="1.0"
     inkscape:pageopacity="0.0"
     inkscape:pageshadow="2"
     inkscape:zoom="32.321429"
     inkscape:cx="14"
     inkscape:cy="4.5"
     inkscape:document-units="px"
     inkscape:current-layer="layer1"
     showgrid="false"
     units="px"
     inkscape:window-width="1280"
     inkscape:window-height="744"
     inkscape:window-x="-4"
     inkscape:window-y="-4"
     inkscape:window-maximized="1" />
  <metadata
     id="metadata19080">
    <rdf:RDF>
      <cc:Work
         rdf:about="">
        <dc:format>image/svg+xml</dc:format>
        <dc:type
           rdf:resource="http://purl.org/dc/dcmitype/StillImage" />
        <dc:title></dc:title>
      </cc:Work>
    </rdf:RDF>
  </metadata>
  <g
     inkscape:label="Layer 1"
     inkscape:groupmode="layer"
     id="layer1"
     transform="translate(0,-1043.6622)">
    <g
       id="g13567"
       transform="matrix(1.25,0,0,-1.25,25.84094,1050.2445)">
      <path
         d="m 0,0 0,3.572 0.588,0.384 0,-4.341 L 0.002,0 0,0 Z"
         style="fill:#e9625a;fill-opacity:1;fill-rule:nonzero;stroke:none"
         id="path13569"
         inkscape:connector-curvature="0" />
    </g>
    <g
       id="g13571"
       transform="matrix(1.25,0,0,-1.25,13.35831,1044.6032)">
      <path
         d="m 0,0 c -0.007,0 -5.434,0.114 -9.998,-0.94 l -0.589,0.385 c 4.826,1.264 10.574,1.218 10.58,1.218 0.006,0 5.751,0.042 10.581,-1.221 L 9.986,-0.941 C 5.423,0.115 0.006,0 0,0"
         style="fill:#f09384;fill-opacity:1;fill-rule:nonzero;stroke:none"
         id="path13573"
         inkscape:connector-curvature="0" />
    </g>
    <g
       id="g13575"
       transform="matrix(1.25,0,0,-1.25,0.14706038,1050.7299)">
      <path
         d="m 0,0 -0.018,0.003 0,4.342 0.589,-0.384 c 4.565,1.055 9.992,1.016 9.998,1.016 0.005,0 5.422,0.038 9.986,-1.016 l 0,-3.573 0.589,-0.385 C 16.317,-1.264 10.569,-1.216 10.563,-1.216 10.556,-1.216 4.831,-1.263 0,0"
         style="fill:#e31837;fill-opacity:1;fill-rule:nonzero;stroke:none"
         id="path13577"
         inkscape:connector-curvature="0" />
    </g>
    <g
       id="g13579"
       transform="matrix(1.25,0,0,-1.25,6.3640604,1047.5189)">
      <path
         d="m 0,0 -0.528,0 0,-0.607 c 0,-0.303 -0.04,-0.469 -0.257,-0.469 -0.237,0 -0.274,0.152 -0.274,0.371 l 0,0.705 -0.526,0 0,-0.785 c 0,-0.359 0.094,-0.643 0.595,-0.643 0.243,0 0.352,0.069 0.473,0.298 l 0.005,0 c 0,-0.082 0.007,-0.165 0.013,-0.248 l 0.509,0 C 0.003,-1.284 0,-1.182 0,-1.095 L 0,0 Z"
         style="fill:#ffffff;fill-opacity:1;fill-rule:evenodd;stroke:none"
         id="path13581"
         inkscape:connector-curvature="0" />
    </g>
    <g
       id="g13583"
       transform="matrix(1.25,0,0,-1.25,14.27456,1049.2411)">
      <path
         d="m 0,0 0.526,0 0,0.522 c 0,0.276 0.183,0.436 0.465,0.436 0.061,0 0.102,-0.006 0.142,-0.011 l 0,0.45 C 0.787,1.397 0.644,1.345 0.515,1.082 l -0.006,0 c 0,0.098 -0.003,0.197 -0.01,0.296 l -0.509,0 C -0.003,1.284 0,1.183 0,1.095 L 0,0 Z"
         style="fill:#ffffff;fill-opacity:1;fill-rule:evenodd;stroke:none"
         id="path13585"
         inkscape:connector-curvature="0" />
    </g>
    <g
       id="g13587"
       transform="matrix(1.25,0,0,-1.25,15.94469,1049.2411)">
      <path
         d="m 0,0 0.525,0 0,0.659 c 0,0.253 0.078,0.42 0.262,0.42 0.238,0 0.286,-0.167 0.286,-0.373 l 0,-0.706 0.526,0 0,0.734 c 0,0.202 0.075,0.345 0.252,0.345 0.214,0 0.293,-0.151 0.293,-0.357 l 0,-0.722 0.525,0 0,0.782 C 2.669,1.323 2.314,1.43 2.02,1.43 1.744,1.43 1.554,1.303 1.438,1.12 1.346,1.336 1.152,1.43 0.945,1.43 0.685,1.43 0.566,1.27 0.515,1.131 l -0.005,0 c 0,0.081 -0.002,0.247 -0.001,0.247 l -0.521,0 C -0.003,1.284 0,1.183 0,1.095 L 0,0 Z"
         style="fill:#ffffff;fill-opacity:1;fill-rule:evenodd;stroke:none"
         id="path13589"
         inkscape:connector-curvature="0" />
    </g>
    <g
       id="g13591"
       transform="matrix(1.25,0,0,-1.25,1.6576904,1049.2411)">
      <path
         d="m 0,0 0,1.98 1.14,0 C 1.617,1.98 1.888,1.807 1.888,1.463 1.888,1.211 1.683,1.036 1.387,0.983 1.554,0.968 1.71,0.928 1.776,0.804 1.872,0.624 1.884,0.207 1.965,0 L 1.354,0 C 1.291,0.193 1.299,0.478 1.244,0.615 1.209,0.706 1.121,0.753 0.891,0.753 l -0.315,0 L 0.576,0 0,0 Z m 0.576,1.597 0,-0.461 0.39,0 c 0.262,0 0.348,0.083 0.348,0.233 0,0.191 -0.152,0.228 -0.429,0.228 l -0.309,0 z"
         style="fill:#ffffff;fill-opacity:1;fill-rule:evenodd;stroke:none"
         id="path13593"
         inkscape:connector-curvature="0" />
    </g>
    <g
       id="g13595"
       transform="matrix(1.25,0,0,-1.25,6.7484404,1049.2411)">
      <path
         d="m 0,0 0,1.98 0.525,0 0,-0.784 C 0.633,1.306 0.808,1.43 1.112,1.43 1.572,1.43 1.823,1.152 1.823,0.698 1.823,0.226 1.562,-0.05 1.126,-0.05 0.784,-0.05 0.63,0.085 0.509,0.228 0.509,0.153 0.506,0 0.506,0 L 0,0 Z m 1.331,0.698 c 0,0.241 -0.164,0.414 -0.397,0.414 -0.238,0 -0.409,-0.167 -0.409,-0.434 0,-0.244 0.171,-0.412 0.409,-0.412 0.272,0 0.397,0.209 0.397,0.432"
         style="fill:#ffffff;fill-opacity:1;fill-rule:evenodd;stroke:none"
         id="path13597"
         inkscape:connector-curvature="0" />
    </g>
    <g
       id="g13599"
       transform="matrix(1.25,0,0,-1.25,14.01756,1048.5404)">
      <path
         d="m 0,0 c -0.003,0.538 -0.233,0.869 -0.905,0.869 -0.471,0 -0.885,-0.23 -0.885,-0.762 0,-0.543 0.416,-0.719 0.894,-0.719 0.379,0 0.757,0.037 0.865,0.472 l -0.559,0 c -0.027,-0.093 -0.069,-0.186 -0.297,-0.186 -0.224,0 -0.349,0.111 -0.362,0.326 L 0,0 Z m -1.24,0.285 c 0.025,0.142 0.096,0.297 0.34,0.297 0.187,0 0.334,-0.071 0.34,-0.297 l -0.68,0 z"
         style="fill:#ffffff;fill-opacity:1;fill-rule:evenodd;stroke:none"
         id="path13601"
         inkscape:connector-curvature="0" />
    </g>
    <g
       id="g13603"
       transform="matrix(1.25,0,0,-1.25,20.29644,1048.026)">
      <path
         d="m 0,0 c 0.004,0.096 0.064,0.172 0.258,0.172 0.209,0 0.311,-0.054 0.311,-0.275 l -0.384,0 c -0.516,0 -0.823,-0.147 -0.823,-0.473 0,-0.288 0.231,-0.446 0.623,-0.446 0.232,0 0.467,0.064 0.594,0.273 l 0.005,0 c 0,-0.074 0.006,-0.175 0.012,-0.223 l 0.51,0 c -0.009,0.101 -0.012,0.207 -0.012,0.308 l 0,0.527 C 1.094,0.328 0.787,0.458 0.25,0.458 -0.112,0.458 -0.515,0.36 -0.542,0 L 0,0 Z m 0.569,-0.37 c 0,-0.143 -0.078,-0.352 -0.42,-0.352 -0.149,0 -0.229,0.058 -0.229,0.143 0,0.115 0.075,0.209 0.428,0.209 l 0.221,0 z"
         style="fill:#ffffff;fill-opacity:1;fill-rule:evenodd;stroke:none"
         id="path13605"
         inkscape:connector-curvature="0" />
    </g>
    <path
       d="m 22.60081,1046.7664 -0.71875,0 0,0.48 0.71875,0 0,-0.48 z m -0.69,2.475 0.66,0 0,-1.7225 -0.66,0 0,1.7225 z"
       style="fill:#ffffff;fill-opacity:1;fill-rule:evenodd;stroke:none"
       id="path13607"
       inkscape:connector-curvature="0" />
    <g
       id="g13609"
       transform="matrix(1.25,0,0,-1.25,9.3250604,1049.2411)">
      <path
         d="m 0,0 0,1.98 0.527,0 0,-0.783 C 0.633,1.306 0.809,1.43 1.112,1.43 1.574,1.43 1.825,1.153 1.825,0.698 1.825,0.226 1.563,-0.05 1.127,-0.05 0.785,-0.05 0.631,0.085 0.511,0.228 0.511,0.153 0.507,0 0.507,0 L 0,0 Z m 1.333,0.698 c 0,0.241 -0.165,0.414 -0.397,0.414 -0.24,0 -0.409,-0.167 -0.409,-0.434 0,-0.244 0.169,-0.412 0.409,-0.412 0.27,0 0.397,0.209 0.397,0.432"
         style="fill:#ffffff;fill-opacity:1;fill-rule:evenodd;stroke:none"
         id="path13611"
         inkscape:connector-curvature="0" />
    </g>
    <g
       id="g13613"
       transform="matrix(1.25,0,0,-1.25,25.09156,1049.2411)">
      <path
         d="m 0,0 0,1.98 -0.525,0 0,-0.783 c -0.108,0.109 -0.283,0.233 -0.589,0.233 -0.46,0 -0.708,-0.277 -0.708,-0.732 0,-0.472 0.259,-0.748 0.696,-0.748 0.342,0 0.496,0.135 0.617,0.278 C -0.509,0.153 -0.507,0 -0.507,0 L 0,0 Z m -1.332,0.698 c 0,0.241 0.166,0.414 0.398,0.414 0.238,0 0.409,-0.167 0.409,-0.434 0,-0.244 -0.171,-0.412 -0.409,-0.412 -0.272,0 -0.398,0.209 -0.398,0.432"
         style="fill:#ffffff;fill-opacity:1;fill-rule:evenodd;stroke:none"
         id="path13615"
         inkscape:connector-curvature="0" />
    </g>
    <g
       id="g13617"
       transform="matrix(1.25,0,0,-1.25,13.21719,1052.2489)">
      <path
         d="m 0,0 c -0.704,0 -4.776,0.04 -8.761,0.829 l -0.003,0 c -0.016,0.004 -0.033,0.007 -0.05,0.01 -10e-4,0 -0.003,0.001 -0.004,0.001 -0.008,0.001 -0.016,0.004 -0.024,0.005 l -0.002,0 c -0.007,0.002 -0.016,0.004 -0.023,0.005 -0.002,0 -0.003,0 -0.004,0.001 -0.009,0.001 -0.017,0.003 -0.025,0.005 l -10e-4,0 c -0.008,0.002 -0.016,0.003 -0.025,0.005 l -0.002,0 C -8.932,0.863 -8.94,0.865 -8.949,0.866 L -8.951,0.867 C -8.959,0.868 -8.966,0.87 -8.974,0.871 -8.975,0.872 -8.978,0.872 -8.979,0.873 -8.986,0.874 -8.994,0.876 -9,0.877 -9.002,0.877 -9.003,0.878 -9.005,0.878 -9.012,0.879 -9.019,0.881 -9.026,0.882 -9.028,0.883 -9.031,0.883 -9.033,0.884 -9.04,0.885 -9.046,0.887 -9.053,0.887 -9.055,0.888 -9.057,0.889 -9.059,0.889 -9.066,0.89 -9.072,0.892 -9.079,0.893 -9.081,0.894 -9.084,0.894 -9.087,0.895 -9.094,0.896 -9.1,0.898 -9.107,0.899 -9.108,0.9 -9.11,0.9 -9.113,0.9 -9.12,0.902 -9.126,0.904 -9.134,0.905 c -0.002,0 -0.003,0.001 -0.006,0.001 -0.006,0.001 -0.013,0.003 -0.02,0.004 -10e-4,0.001 -0.004,0.002 -0.007,0.002 -0.006,0.001 -0.012,0.002 -0.019,0.004 -0.002,0 -0.005,0.001 -0.008,0.001 C -9.2,0.919 -9.206,0.92 -9.212,0.921 l -0.009,0.002 c -0.005,0.002 -0.011,0.002 -0.018,0.004 -0.003,0.001 -0.006,0.001 -0.009,0.002 -0.005,0.001 -0.011,0.002 -0.017,0.004 -0.003,0 -0.006,0.001 -0.01,0.002 -0.005,0.001 -0.011,0.002 -0.016,0.004 -0.004,0 -0.007,0.001 -0.011,0.002 -0.005,0 -0.01,0.002 -0.016,0.003 -0.003,0.001 -0.007,0.002 -0.01,0.003 -0.006,0 -0.011,0.002 -0.017,0.002 -0.003,0.002 -0.007,0.003 -0.011,0.003 -0.005,0.001 -0.01,0.003 -0.015,0.003 -0.004,0.002 -0.007,0.003 -0.011,0.003 -0.005,0.001 -0.011,0.002 -0.016,0.003 -0.004,0.002 -0.007,0.002 -0.011,0.003 -0.005,0.001 -0.011,0.002 -0.016,0.003 -0.004,0.001 -0.006,0.002 -0.01,0.003 -0.005,0.001 -0.01,0.002 -0.016,0.003 -0.004,0.001 -0.007,0.002 -0.011,0.003 -0.005,0.001 -0.011,0.002 -0.016,0.003 -0.004,0.001 -0.007,0.002 -0.01,0.003 -0.005,0 -0.011,0.002 -0.016,0.003 -0.004,0.001 -0.008,0.002 -0.011,0.002 -0.005,0.002 -0.011,0.003 -0.016,0.004 -0.004,0.001 -0.007,0.002 -0.011,0.002 -0.005,0.002 -0.011,0.003 -0.016,0.004 -0.003,0.001 -0.007,0.001 -0.01,0.002 -0.006,0.002 -0.012,0.003 -0.017,0.005 -0.003,0 -0.006,0 -0.009,10e-4 -0.005,0.001 -0.012,0.003 -0.017,0.004 -0.004,0.001 -0.007,0.002 -0.011,0.003 -0.006,10e-4 -0.01,0.002 -0.015,0.003 -0.004,0.001 -0.008,0.002 -0.011,0.002 -0.006,0.002 -0.011,0.003 -0.017,0.004 -0.003,0.001 -0.007,0.002 -0.01,0.003 -0.005,10e-4 -0.01,0.002 -0.016,0.004 -0.004,0 -0.007,10e-4 -0.01,0.002 -0.006,10e-4 -0.011,0.002 -0.016,0.003 -0.004,0.001 -0.009,0.003 -0.012,0.003 -0.005,10e-4 -0.01,0.003 -0.014,0.003 -0.004,0.001 -0.009,0.002 -0.012,0.003 -0.006,0.002 -0.01,0.002 -0.016,0.004 -0.003,10e-4 -0.007,10e-4 -0.012,0.003 -0.004,0 -0.009,0.002 -0.013,0.003 -0.005,10e-4 -0.008,0.002 -0.013,0.003 -0.005,0.001 -0.01,0.002 -0.015,0.003 -0.004,10e-4 -0.007,0.002 -0.01,0.003 -0.005,0.001 -0.011,0.002 -0.016,0.003 -0.004,0.002 -0.008,0.002 -0.012,0.003 -0.004,0.001 -0.01,0.003 -0.015,0.004 -0.003,0 -0.007,0.002 -0.011,0.003 -0.005,10e-4 -0.01,0.002 -0.016,0.003 -0.003,0.001 -0.006,0.002 -0.01,0.002 -0.005,0.002 -0.01,0.003 -0.016,0.004 -0.004,0.002 -0.007,0.002 -0.011,0.003 -0.005,10e-4 -0.01,0.003 -0.015,0.004 -0.003,0 -0.007,10e-4 -0.01,0.002 -0.005,10e-4 -0.011,0.003 -0.016,0.004 -0.005,10e-4 -0.008,0.002 -0.011,0.003 -0.006,0.001 -0.011,0.002 -0.016,0.004 l -0.009,0.002 c -0.006,0.001 -0.012,0.003 -0.018,0.004 -0.003,0.001 -0.007,0.002 -0.01,0.003 -0.006,10e-4 -0.011,0.002 -0.016,0.003 -0.004,0.001 -0.007,0.002 -0.01,0.003 -0.005,0.002 -0.011,0.003 -0.016,0.004 -0.004,0 -0.007,10e-4 -0.01,0.002 -0.005,10e-4 -0.011,0.003 -0.017,0.004 -0.003,0.001 -0.008,0.002 -0.011,0.003 -0.005,0.002 -0.01,0.002 -0.015,0.004 -0.003,10e-4 -0.007,10e-4 -0.01,0.003 -0.006,0.001 -0.011,0.002 -0.017,0.003 -0.003,10e-4 -0.005,0.002 -0.008,0.003 -0.006,0.001 -0.012,0.003 -0.017,0.004 -0.004,0.001 -0.008,0.001 -0.011,0.003 -0.005,10e-4 -0.011,0.002 -0.016,0.004 -0.004,0 -0.007,0.002 -0.011,0.003 -0.005,0.001 -0.01,0.002 -0.015,0.003 -0.004,0.002 -0.009,0.002 -0.013,0.003 -0.004,0.002 -0.009,0.003 -0.013,0.004 -0.004,0.001 -0.007,0.002 -0.011,0.003 -0.005,10e-4 -0.01,0.003 -0.015,0.003 -0.006,0.002 -0.011,0.003 -0.016,0.005 -0.003,0 -0.007,10e-4 -0.011,0.003 -0.006,0.001 -0.013,0.003 -0.019,0.004 -0.003,0.001 -0.005,0.001 -0.007,0.002 -0.006,0.002 -0.012,0.003 -0.018,0.005 -0.002,0 -0.005,10e-4 -0.008,0.002 -0.017,0.004 -0.034,0.008 -0.05,0.013 -0.001,0 -0.002,0 -0.003,0.001 -0.009,0.002 -0.017,0.004 -0.026,0.006 l 0.325,0.223 0.243,0.166 0,10e-4 10e-4,0 c 4.248,-0.983 9.234,-1.018 9.91,-1.018 l 0.077,0 0.077,0 c 0.678,0 5.675,0.035 9.922,1.016 L 10.687,1.218 C 6.244,0.053 1.021,0 0.213,0 0.144,0 0.107,0.001 0.107,0.001 0.106,0.001 0.069,0 0,0"
         style="fill:#9c182a;fill-opacity:1;fill-rule:nonzero;stroke:none"
         id="path13619"
         inkscape:connector-curvature="0" />
    </g>
    <g
       id="g13621"
       transform="matrix(1.25,0,0,-1.25,0.14544038,1050.7299)">
      <path
         d="m 0,0 0,0 -0.018,0.003 0,4.342 10e-4,-10e-4 0,-4.341 L 0,0 Z"
         style="fill:#cac7c7;fill-opacity:1;fill-rule:nonzero;stroke:none"
         id="path13623"
         inkscape:connector-curvature="0" />
    </g>
    <g
       id="g13625"
       transform="matrix(1.25,0,0,-1.25,0.14544038,1050.7296)">
      <path
         d="m 0,0 -0.017,0.003 0,4.341 L 0.572,3.961 0.57,0.39 0.326,0.223 0,0 Z"
         style="fill:#bd1a31;fill-opacity:1;fill-rule:nonzero;stroke:none"
         id="path13627"
         inkscape:connector-curvature="0" />
    </g>
    <g
       id="g13629"
       transform="matrix(1.25,0,0,-1.25,0.55331038,1050.4515)">
      <path
         d="m 0,0 0.244,0.167 0,-0.001 L 0,0 Z"
         style="fill:#851624;fill-opacity:1;fill-rule:nonzero;stroke:none"
         id="path13631"
         inkscape:connector-curvature="0" />
    </g>
  </g>
</svg>
