<svg version="1.1" id="Layer_1" xmlns:x="ns_extend;" xmlns:i="ns_ai;" xmlns:graph="ns_graphs;" inkscape:version="1.0.1 (c497b03c, 2020-09-10)" xmlns:cc="http://creativecommons.org/ns#" xmlns:dc="http://purl.org/dc/elements/1.1/" xmlns:inkscape="http://www.inkscape.org/namespaces/inkscape" xmlns:rdf="http://www.w3.org/1999/02/22-rdf-syntax-ns#" xmlns:sodipodi="http://sodipodi.sourceforge.net/DTD/sodipodi-0.dtd" xmlns:svg="http://www.w3.org/2000/svg" xmlns="http://www.w3.org/2000/svg" xmlns:xlink="http://www.w3.org/1999/xlink" x="0px" y="0px" viewBox="0 0 463.4 172" style="enable-background:new 0 0 463.4 172;" xml:space="preserve">
 <style type="text/css">
  .st0{fill:#FFFFFF;}
 </style>
 <metadata id="metadata46">
  <rdf:RDF>
   <cc:Work rdf:about="">
    <dc:format>
     image/svg+xml
    </dc:format>
    <dc:type rdf:resource="http://purl.org/dc/dcmitype/StillImage">
    </dc:type>
    <dc:title>
    </dc:title>
   </cc:Work>
  </rdf:RDF>
  <sfw xmlns="ns_sfw;">
   <slices>
   </slices>
   <sliceSourceBounds bottomLeftOrigin="true" height="172" width="463.4" x="-269" y="0">
   </sliceSourceBounds>
  </sfw>
 </metadata>
 <g>
  <sodipodi:namedview bordercolor="#666666" borderopacity="1" fit-margin-bottom="0" fit-margin-left="0" fit-margin-right="0" fit-margin-top="0" gridtolerance="10" guidetolerance="10" id="namedview44" inkscape:current-layer="Layer_1" inkscape:cx="97.212581" inkscape:cy="36.081306" inkscape:pageopacity="0" inkscape:pageshadow="2" inkscape:window-height="847" inkscape:window-maximized="0" inkscape:window-width="1440" inkscape:window-x="0" inkscape:window-y="25" inkscape:zoom="5.6372802" objecttolerance="10" pagecolor="#ffffff" showgrid="false">
  </sodipodi:namedview>
  <g>
   <path id="path33" class="st0" d="M463.3,91.9c0.7,3.3-1.4,6.6-4.7,7.2c-3.3,0.7-6.6-1.4-7.2-4.7c0-0.2-0.1-0.4-0.1-0.6l0,0
			c-0.7-3.3,1.4-6.6,4.7-7.2c3.3-0.7,6.6,1.4,7.2,4.7C463.2,91.5,463.2,91.7,463.3,91.9 M452.2,93.6c0.4,2.8,3.1,4.7,5.9,4.3
			c2.8-0.4,4.7-3.1,4.3-5.9c-0.4-2.8-3.1-4.7-5.9-4.3l0,0C453.7,88.1,451.8,90.7,452.2,93.6C452.2,93.5,452.2,93.5,452.2,93.6
			L452.2,93.6 M460.8,95.7l-1,0.2l-2.4-2.7l-1.3,0.2l0.5,3l-1,0.2l-1-6.7l2.9-0.5c1.2-0.2,2.4,0,2.7,1.4s-0.6,2-1.8,2.4l2.4,2.7
			 M455.9,92.7l1.7-0.3c1.4-0.2,1.6-0.8,1.5-1.5c-0.1-0.6-1.1-0.8-1.8-0.7l-1.8,0.3L455.9,92.7z">
   </path>
   <path id="path35" class="st0" d="M86.7,27.7c13.2-3.1,36.4-3.7,41.3,7.5c7.1,16.5-19.3,33.7-26.9,38.1c-6.9,2.8-14.3-1.7-10.2-9.1
			c20.3-11.7,28.6-22.4,22.8-25.4C94.6,28.7,40,56.9,39.5,69c-0.2,6.6,5.2,10.6,32,14.9c29.1,6,59.3,13.8,51.1,40.1
			c-15,36.9-69.4,45.5-94.3,47.9C16,172.5,4.9,170,2.7,167.2c-2.9-2.4-4-8.6-0.5-10.3c2.4-1.2,5.1-1.5,7.7-1
			c60.4,7.7,96-19.1,97.8-36.6c2.4-21.4-70.7-15.5-80.1-38.1C15.7,52.3,67.7,32.2,86.7,27.7z">
   </path>
   <path id="path37" class="st0" d="M147.6,22.5c6.6,4.3,1.2,48.2,1.2,48.2c14.1-6.9,23.2-11.3,29-1.4c7.9,13.4-8.7,45.6-1.9,54.7
			c2.7,3.7,14.3-12.7,14.7-18.2c0-2.1,0.3-7.7,0.5-9.9c0.7-9.5,1.7-20.2,7.8-29.5c9.5-15.6,26.5-19.1,33.2-1.6
			c13.7,0.9-5.3,42.1,4.5,46.3c7.5,3.3,11-7.8,13.5-16.9c1-4,5.5-30,3.3-29.2c-6.3,1.1-12.3-1.3-11-7.6c0.6-2.4,8-3.6,11.2-5.2
			c1.3-10.6,2.9-14.8,10-16.3c4-0.9,3,7.5,3.1,12.6c12.2-5,21.6-5.9,24.6,3.7c5.4,17-13.2,45.1-4.4,51.9c3,1.9,16.3-7.3,18.1-34.4
			c1.6-23.8,3.3-53.2,13.2-39.7c3.5,4.8-0.6,11.2,0.4,16c0.3,0,16.8-22.1,28.1-8.9c2,2.9,11.3,11.2,7.1,42.8
			c-1.7,10.5-3.9,18-7.6,23.1c-3.4,4.5-8.6,7.4-14.3,7.9c-9.5,0-17.1-13.5-7.3-26.9c5-3.6,3.3,3.8,3.3,7.5c0,1.2,0.2,2.4,0.6,3.5
			c10.1,20.8,23.8-45.1,8.7-47c-8.1,0-12.1,7.6-15.3,15c-13.3,30.4,0,76.3-5.8,79c-9.8,4.6-11.6-3.1-12.1-36.6
			c-3.5,3.9-16.8,22-27.9,7.5c-11.1-13,11.1-53.6,1.4-54.8c-3-0.4-10.3,2.6-10.5,3.5c-1.9,7.1-2.6,29.2-9.1,47.7
			c-6.7,19.3-20.5,24.3-30.8,9.3c-7.5,12.6-18.4,19.1-27.4,11.7c-2.1-2.2-3.7-4.9-4.6-7.8c-4,4.8-8.4,11.4-15,14.8
			c-3.1,1.9-6.8,2.5-10.3,1.8c-1.3-0.6-2.6-1.4-3.7-2.4c-11.2-8.6-0.3-29,0.3-54.6c0.2-1.5-0.6-2.8-2-3.4c-2.2-1.2-15.2,4-16.4,8.4
			c-5.7,48.6-2.1,55.2-3.7,56.8c-24.3,13.2-7-50.9-10.2-50.6c-7,3.5-14.9-1.3-11.9-10.5c0.6-2.7,12.5-1.5,13.2-6.1
			c4-25.9-0.2-47,3.6-51.9C140.8,23.2,145,19.3,147.6,22.5 M209.1,116.6c9.7,3.5,12.1-25.1,13.8-46c-0.2-1.6,0.5-3.2,1.9-4.1
			c-2.5-1-5.2-1.3-7.9-0.6C203.8,71.6,199.2,107.1,209.1,116.6z">
   </path>
   <path id="path39" class="st0" d="M373.8,10.1c1.4-6.3,6.2-10.8,10.6-10.1s6.8,6.4,5.5,12.8c-1.3,6.3-6.3,10.9-10.7,10
			C374.7,22,372.3,16.4,373.8,10.1z">
   </path>
   <path id="path41" class="st0" d="M406.1,21.3c13.3-6,24,10,19.3,33.8c-2.9,12-8.9,23-17.5,31.9c9.5,10.4,24.2,3.4,28.1-3.1
			c4.5-7.5,5.5-19.1,6.9-19.9c1.3-0.6,2.8-0.8,4.3-0.5c2.9,1,4.1,5.6,3.6,11.2c-0.8,7.7-4.2,14.9-9.5,20.5c-3.1,2.9-6.9,5.1-11,6.4
			c-8.7,3-18.3,2-26.2-2.6c-1.8-1.1-3.5-2.4-5-3.8c-0.8,0.1-19.4,13.3-31.4,2.4c-7.3-7.6-8.2-15.3-5.3-35.1
			c3.2-18.5,9.2-33.2,16.1-33.6c12.9-0.7-4.6,22.9-4.6,47.5c-0.1,15.1,9.4,16.2,18.6,9.2c-3.4-6.6-5.3-13.9-5.6-21.4
			C386.5,49.1,391.1,27.7,406.1,21.3 M402.1,77c15.2-19.1,13.4-39.1,10.4-42.2c-1.7-1-3.8-0.5-5,1c-5.7,5.6-12.5,30.7-5.5,41
			L402.1,77z">
   </path>
  </g>
 </g>
</svg>