<?xml version="1.0" encoding="UTF-8"?>
<svg id="svg8" width="2406pt" height="750pt" version="1.1" viewBox="0 0 2406 750" xmlns="http://www.w3.org/2000/svg" xmlns:cc="http://creativecommons.org/ns#" xmlns:dc="http://purl.org/dc/elements/1.1/" xmlns:rdf="http://www.w3.org/1999/02/22-rdf-syntax-ns#">
 <metadata id="metadata5">
  <rdf:RDF>
   <cc:Work rdf:about="">
    <dc:format>image/svg+xml</dc:format>
    <dc:type rdf:resource="http://purl.org/dc/dcmitype/StillImage"/>
    <dc:title/>
   </cc:Work>
  </rdf:RDF>
 </metadata>
 <g id="layer1" transform="translate(139.39 552.1)">
  <g id="g3651" transform="matrix(31.99 0 0 31.99 4319.7 -6132.8)">
   <path id="path2054" d="m-126.48 175.64h49.393c6.474 0 11.722 4.717 11.722 10.534 0 5.819-5.248 10.535-11.722 10.535h-49.393c-6.474 0-11.722-4.716-11.722-10.535 0-5.817 5.248-10.534 11.722-10.534" fill="#fff"/>
   <path id="path2056" d="m-126.48 175.64h49.393c6.474 0 11.722 4.717 11.722 10.534 0 5.819-5.248 10.535-11.722 10.535h-49.393c-6.474 0-11.722-4.716-11.722-10.535 0-5.817 5.248-10.534 11.722-10.534z" fill="none" stroke="#f7424c" stroke-miterlimit="3.864" stroke-width="2.376"/>
   <path id="path2058" d="m-130.34 189.37c6e-3 -0.205-0.01-0.391 0.025-0.559 0.028-0.13001 0.197-0.22301 0.457-0.22301 0.336 0 0.203 0.54 0.63 1.508 0.591 1.342 1.613 2.05 2.954 2.05 1.528 0 2.548-0.76399 2.833-2.105 0.102-0.48401 0.03-0.932-0.201-1.248-0.369-0.54101-1.124-0.671-1.887-1.025-2.649-1.211-3.786-1.994-3.291-4.322 0.499-2.349 2.464-3.97 4.681-3.97 1.62 0 2.311 0.783 2.758 0.783 0.41 0 0.726-0.261 0.912-0.261s0.26 0.094 0.22399 0.261c-0.032 0.15-0.135 0.373-0.20599 0.708-0.226 1.062-0.162 1.901-0.277 2.441-0.055 0.261-0.146 0.336-0.369 0.336-0.541 0-0.291-0.56001-0.547-1.286-0.497-1.342-1.442-2.068-2.671-2.068-1.23 0-2.238 0.801-2.444 1.77-0.261 1.23 0.512 1.621 1.974 2.198 1.186 0.466 2.153 0.82 2.693 1.435 0.662 0.745 0.878 1.825 0.63 3-0.563 2.645-2.592 4.303-5.33 4.303-1.043 0-1.884-0.428-2.962-0.614-0.449-0.076-0.549-0.13099-0.546-0.67099l-0.04-2.441" fill="#f7424c"/>
   <path id="path2060" d="m-119.66 186.02c0.044-0.205 0.022-0.279-0.202-0.279h-0.52-0.206c-0.111 0-0.145-0.019-0.105-0.20401 0.087-0.40999 0.837-0.522 2.132-1.529 1.384-1.08 1.791-1.77 2.015-1.77 0.13 0 0.218 0.112 0.19 0.243-0.032 0.14899-0.189 0.54-0.315 1.136l-0.159 0.74501c-0.063 0.298-0.067 0.318 0.249 0.318h0.97c0.409 0 0.805-0.374 0.972-0.374 0.093 0 0.148 0.094 0.12 0.224-0.011 0.056-0.131 0.354-0.43 0.801-0.225 0.354-0.311 0.41-0.702 0.41h-1.1c-0.354 0-0.411 0.094-0.493 0.485l-0.88 4.135c-0.19 0.894-0.056 1.23 0.707 1.23 0.69 0 1.194-0.354 1.436-0.354 0.149 0 0.222 0.094 0.202 0.187-0.119 0.558-1.681 1.602-3.302 1.602-1.453 0-1.904-0.858-1.525-2.646 0.064-0.298 0.17-0.708 0.268-1.173l0.678-3.187" fill="#f7424c"/>
   <path id="path2062" d="m-113.29 188.7c-0.321 1.508 0.627 2.925 2.247 2.925 1.416 0 2.408-0.98801 2.706-0.98801 0.167 0 0.256 0.11201 0.22 0.28001-0.036 0.16699-0.3 0.44599-0.804 0.801-1.225 0.856-2.445 1.248-3.804 1.248-2.459 0-3.658-1.546-3.116-4.099 0.551-2.591 2.728-4.509 5.262-4.509 2.198 0 3.471 1.547 3.115 3.223-0.127 0.597-0.315 0.69-1.171 0.69h-4.192c-0.297 0-0.376 0.018-0.463 0.429zm2.377-1.194c0.858 0 1.032-0.036 1.131-0.502 0.25-1.173-0.343-1.976-1.219-1.976-0.895 0-1.694 0.783-1.956 2.013-0.095 0.447-0.061 0.465 0.348 0.465h1.696" fill="#f7424c"/>
   <path id="path2064" d="m-106.34 186.02c-0.335-0.093-0.611-0.018-0.536-0.372 0.083-0.391 0.556-0.335 1.251-0.541 1.41-0.409 2.179-0.87501 2.403-0.87501 0.149 0 0.215 0.13001 0.167 0.354-0.02 0.094-0.074 0.16801-0.089 0.24201l-0.315 1.304h0.15c1.008-1.061 1.63-1.621 2.077-1.621 0.689 0 1.45 0.80201 1.331 1.36-0.146 0.69-1.038 1.639-1.466 1.639-0.521 0-0.734-0.931-1.292-0.931-0.707 0-1.037 0.672-1.325 2.032l-0.393 1.844c-0.166 0.782-0.182 1.117 0.239 1.416 0.392 0.261 0.9 0.14901 0.808 0.57701-0.055 0.261-0.209 0.372-0.488 0.372-0.522 0-1.086-0.14801-1.701-0.14801-1.526 0-2.234 0.168-2.327 0.168-0.149 0-0.285-0.15-0.244-0.336 0.054-0.25999 0.327-0.31699 0.571-0.50299 0.358-0.279 0.455-0.55901 0.542-0.969l0.879-4.136c0.107-0.50299 0.021-0.801-0.242-0.876" fill="#f7424c"/>
   <path id="path2066" d="m-99.957 186c-0.315-0.093-0.596 0-0.52-0.354 0.094-0.447 0.726-0.354 1.972-0.783 0.925-0.316 1.443-0.652 1.686-0.652 0.129 0 0.225 0.167 0.177 0.392-0.059 0.279-0.315 1.043-0.572 2.254l-0.765 3.596c-0.166 0.782-0.181 1.117 0.24 1.416 0.391 0.261 0.881 0.14901 0.79 0.57701-0.056 0.261-0.21 0.372-0.489 0.372-0.373 0-1.105-0.14801-2.204-0.14801-1.006 0-1.693 0.168-2.048 0.168-0.186 0-0.318-0.168-0.274-0.373 0.072-0.335 0.362-0.299 0.736-0.485 0.375-0.186 0.528-0.466 0.631-0.94999l0.883-4.154c0.106-0.504 0.04-0.80199-0.243-0.876" fill="#f7424c"/>
   <path id="path2068" d="m-94.232 180.8c-0.335-0.094-0.629-0.019-0.554-0.373 0.083-0.391 0.786-0.372 2.011-0.782 0.942-0.317 1.437-0.634 1.68-0.634 0.149 0 0.239 0.186 0.188 0.429-0.035 0.167-0.361 1.173-0.765 3.074l-1.687 7.937c-0.166 0.782-0.181 1.117 0.239 1.416 0.392 0.261 0.881 0.14901 0.79 0.57701-0.055 0.261-0.209 0.372-0.489 0.372-0.372 0-1.104-0.14801-2.204-0.14801-1.005 0-1.693 0.168-2.047 0.168-0.186 0-0.318-0.168-0.275-0.373 0.071-0.335 0.362-0.299 0.737-0.485 0.352-0.16699 0.527-0.466 0.63-0.94999l1.988-9.353c0.107-0.503 0.021-0.8-0.242-0.875" fill="#f7424c"/>
   <path id="path2070" d="m-90.717 186c-0.316-0.093-0.597 0-0.521-0.354 0.094-0.447 0.727-0.354 1.973-0.783 0.924-0.316 1.443-0.652 1.684-0.652 0.131 0 0.226 0.167 0.179 0.392-0.06 0.279-0.316 1.043-0.574 2.254l-0.764 3.596c-0.166 0.782-0.182 1.117 0.24 1.416 0.391 0.261 0.881 0.14901 0.79 0.57701-0.056 0.261-0.21 0.372-0.489 0.372-0.373 0-1.104-0.14801-2.204-0.14801-1.006 0-1.693 0.168-2.047 0.168-0.186 0-0.319-0.168-0.276-0.373 0.073-0.335 0.363-0.299 0.738-0.485s0.527-0.466 0.63-0.94999l0.882-4.154c0.108-0.504 0.041-0.80199-0.241-0.876" fill="#f7424c"/>
   <path id="path2072" d="m-85.804 186.02c0.044-0.205 0.022-0.279-0.201-0.279h-0.521-0.206c-0.111 0-0.145-0.019-0.106-0.20401 0.087-0.40999 0.838-0.522 2.132-1.529 1.385-1.08 1.792-1.77 2.016-1.77 0.13 0 0.218 0.112 0.191 0.243-0.032 0.14899-0.19 0.54-0.316 1.136l-0.159 0.74501c-0.063 0.298-0.067 0.318 0.249 0.318h0.97c0.409 0 0.805-0.374 0.972-0.374 0.093 0 0.149 0.094 0.121 0.224-0.013 0.056-0.131 0.354-0.431 0.801-0.225 0.354-0.311 0.41-0.703 0.41h-1.098c-0.355 0-0.411 0.094-0.495 0.485l-0.879 4.135c-0.19 0.894-0.056 1.23 0.708 1.23 0.689 0 1.193-0.354 1.434-0.354 0.15 0 0.223 0.094 0.203 0.187-0.119 0.558-1.682 1.602-3.302 1.602-1.453 0-1.905-0.858-1.524-2.646 0.064-0.298 0.169-0.708 0.268-1.173l0.677-3.187" fill="#f7424c"/>
   <path id="path2074" d="m-79.427 188.7c-0.321 1.508 0.627 2.925 2.248 2.925 1.415 0 2.406-0.98801 2.705-0.98801 0.167 0 0.256 0.11201 0.22 0.28001-0.036 0.16699-0.3 0.44599-0.804 0.801-1.225 0.856-2.444 1.248-3.804 1.248-2.459 0-3.658-1.546-3.116-4.099 0.551-2.591 2.728-4.509 5.262-4.509 2.198 0 3.471 1.547 3.115 3.223-0.127 0.597-0.315 0.69-1.172 0.69h-4.19c-0.298 0-0.377 0.018-0.464 0.429zm2.377-1.194c0.857 0 1.033-0.036 1.131-0.502 0.25-1.173-0.343-1.976-1.219-1.976-0.894 0-1.694 0.783-1.955 2.013-0.095 0.447-0.062 0.465 0.348 0.465h1.695" fill="#f7424c"/>
   <path id="path2076" d="m-99.014 182.02c0-0.809 0.655-1.464 1.464-1.464s1.463 0.655 1.463 1.464c0 0.80899-0.654 1.463-1.463 1.463s-1.464-0.654-1.464-1.463" fill="#f7424c"/>
   <path id="path2078" d="m-89.755 182.02c0-0.809 0.656-1.464 1.464-1.464 0.808 0 1.464 0.655 1.464 1.464 0 0.80899-0.656 1.463-1.464 1.463-0.808 0-1.464-0.654-1.464-1.463" fill="#f7424c"/>
   <path id="path2080" d="m-70.979 187.57h-0.407v-1.905h0.711c0.492 0 0.781 0.141 0.781 0.577 0 0.35-0.205 0.476-0.458 0.494l0.487 0.834h-0.482l-0.44-0.8h-0.192zm0.36-1.123c0.183 0 0.291-0.037 0.291-0.248 0-0.196-0.211-0.211-0.365-0.211h-0.286v0.459zm-0.066 1.942c-0.94 0-1.778-0.65099-1.778-1.769s0.838-1.769 1.778-1.769c0.937 0 1.774 0.651 1.774 1.769s-0.837 1.769-1.774 1.769zm0-3.126c-0.701 0-1.267 0.543-1.267 1.357 0 0.81399 0.566 1.362 1.267 1.357v5e-3c0.684 0 1.264-0.548 1.264-1.362 0-0.81399-0.58-1.357-1.264-1.357" fill="#f7424c"/>
  </g>
 </g>
</svg>
