<?xml version="1.0" encoding="UTF-8"?>
<svg id="svg877" width="3825" height="1e3" version="1.1" viewBox="0 0 3825 1e3" xml:space="preserve" xmlns="http://www.w3.org/2000/svg" xmlns:cc="http://creativecommons.org/ns#" xmlns:dc="http://purl.org/dc/elements/1.1/" xmlns:rdf="http://www.w3.org/1999/02/22-rdf-syntax-ns#"><metadata id="metadata883"><rdf:RDF><cc:Work rdf:about=""><dc:format>image/svg+xml</dc:format><dc:type rdf:resource="http://purl.org/dc/dcmitype/StillImage"/><dc:title/></cc:Work></rdf:RDF></metadata><g id="g885" transform="matrix(1.3333 0 0 -1.3333 0 1e3)"><g id="g887" transform="scale(.1)"><path id="path889" d="m21990 3945c-35.079 135-125.12 202.48-270.07 202.48-29.999 0-52.518-2.5999-67.478-7.4798-194.99-115.08-372.51-277.51-532.5-487.53-45.078-60.014-245.07-405-599.98-1035-85.156-179.99-170.07-357.5-255.03-532.46-80.077-195.02-120.04-382.5-120.04-562.5v-82.513c9.96-40.046 17.48-77.609 22.56-112.48 4.879-35.079 19.959-62.61 44.958-82.513 25.039-20.047 54.958-29.999 89.917-29.999 34.998 0 69.997 7.4677 105.12 22.467 34.878 15 54.918 24.967 59.917 29.999 240.07 139.96 469.94 362.47 690.1 667.54 129.92 179.99 294.91 452.42 494.98 817.45 24.919 69.997 79.957 192.48 164.99 367.55 124.92 264.95 187.51 480 187.51 644.99 0 79.905-5 139.92-14.959 180.01zm-2917.6 67.482c-20.039 79.917-74.957 120-164.99 120-34.999 0-72.518-7.4797-112.4-22.479-320.11-125.05-585.1-310.07-795.09-555.03-209.95-245.05-367.43-535.09-472.42-870-15.039-40.078-22.559-67.514-22.559-82.513 0-50.046 37.439-74.969 112.48-74.969 64.957 0 148.75 19.891 251.31 59.97 102.4 39.998 176.15 75.025 221.23 105.02 284.95 179.99 507.42 364.88 667.42 554.98 210.07 249.99 315.03 504.97 315.03 765.02zm-3689.9-112.5c0 84.965-27.599 127.5-82.517 127.5-25.039 0-52.478-6.3597-82.477-18.759-30.039-12.504-57.518-28.831-82.517-48.722-445.06-290.07-790.01-677.61-1035-1162.5-235.19-584.98-422.58-1030.1-562.54-1335-25.039-65.03-37.439-127.51-37.439-187.46 0-120.04 62.478-179.99 187.39-179.99 69.958 0 139.96 15 210.07 44.95 69.877 29.999 127.44 67.482 172.39 112.51 180.07 169.96 327.59 337.52 442.54 502.51 114.92 165.03 242.47 387.42 382.54 667.49 189.91 379.94 299.99 612.41 329.99 697.53 105 269.99 157.51 529.9 157.51 779.99zm13203-338.64-995.92-2209.9c0-15.279 1.12-40.482 3.76-75.841 2.439-35.435 23.839-53.122 63.997-53.122 14.96 0 42.639 7.5317 82.917 22.531 65.118 34.903 131.64 72.433 199.35 112.51 67.757 39.918 161.87 99.916 282.43 179.95 55.118 29.999 100.28 44.998 135.48 44.998 50.158 0 75.277-20.031 75.277-59.95 0-40.078-25.119-77.609-75.077-112.51-184.95-179.99-334.99-305.08-449.94-375.03-169.99-110.04-347.59-164.99-532.5-164.99-55.158 0-132.6 4.9518-232.55 14.999-99.996 9.9996-190.03 97.512-269.99 262.51-19.959 54.966-29.918 120-29.918 195.04 0 99.916 19.959 197.43 60.037 292.43l1012.6 2265.1c24.919 69.965 7.479 105.02-52.519 105.02-30.118 0-57.557-7.5197-82.596-22.519-374.95-205.08-700.09-495.03-974.92-870.02-175.07-245.02-377.63-612.52-607.54-1102.5-260.23-560.03-447.58-935.01-562.62-1125-25.119-10.048-67.478-18.763-127.48-26.203-60.037-7.5597-125.16-11.28-195.03-11.28-115.04 0-224.99 9.9676-329.99 29.967-45.078 39.999-67.438 87.465-67.438 142.51 0 39.999 12.4 86.277 37.439 138.79 24.999 52.482 54.918 111.2 89.917 176.2 385.02 855.02 770.05 1712.5 1155.1 2572.6 9.999 19.891 12.439 54.934 7.479 104.98-4.999 49.918-42.558 59.998-112.56 29.999-364.99-205.07-679.94-490.11-944.92-855.02-179.95-250.07-375.07-610.09-585.02-1080-260.03-584.98-430.1-952.53-510.06-1102.5-34.999-44.998-85.037-78.717-149.92-101.23-65.117-22.483-135-33.763-209.99-33.763-65.078 0-138.72 2.7959-221.35 8.4357-82.357 5.6438-148.71 10.36-198.67 14.047-25.119 39.999-37.519 84.997-37.519 135 0 54.998 16.16 113.72 48.838 176.31 32.319 62.438 56.158 108.72 71.198 138.76 254.95 509.98 437.42 882.4 547.5 1117.5 194.99 409.9 357.47 795.01 487.46 1155 15.079 39.922 19.959 67.498 15.079 82.497-5.119 14.999-15.079 22.467-30.038 22.467-55.038 0-102.56-27.515-142.52-82.497-170.11-180.01-407.5-466.23-712.49-858.73-304.95-392.59-552.58-706.3-742.49-941.24-295.11-365.03-545.06-644.98-750.01-840.02-110.08-85.077-237.51-127.51-382.47-127.51-50.078 0-110.08 7.3277-180.07 21.951-134.88 43.562-227.47 101.92-277.51 174.81-10 19.315-40.119 104.31-89.957 255.02-15.04 38.766-29.999 58.25-44.958 58.25-5.08 0-30.119-16.999-75.078-50.966-145.03-102.08-289.99-204.07-434.98-305.99-160.11-102.08-312.47-153.07-457.54-153.07-79.917 0-163.75 15.919-251.23 48.078-87.517 31.999-163.79 78.837-228.67 140.48-65.118 61.67-115.2 126.92-149.96 195.94-20.159 54.17-37.678 128.12-52.518 221.88-15.039 93.588-22.559 219.35-22.559 377.06 0 44.31-10.08 66.594-29.999 66.594-14.959 0-55.038-27.595-119.96-82.513-104.96-65.046-332.63-230.07-682.58-494.98-495.02-375.03-904.97-562.54-1230-562.54-105.04 0-203.71 10.124-296.31 29.999-92.557 20.047-193.75 59.998-303.71 120.04-155.03 109.9-257.59 259.89-307.43 449.98-30.039 120-44.959 309.94-44.959 570.01 9.96 34.919 0 52.482-30.118 52.482-10 0-27.439-7.5157-52.478-22.515-310.07-250.04-535.1-422.55-674.94-517.51-285.07-200.02-545.06-350.02-780.05-449.98-295.11-125.03-582.58-187.51-862.53-187.51-220.03 0-427.46 34.951-622.46 105.04-130.12 69.949-228.79 171.18-296.27 303.74-67.517 132.4-113.8 283.71-138.72 453.75-4.999 49.918-22.479 74.949-52.598 74.949-25.039 0-58.797-19.923-101.12-59.466-42.638-39.639-68.877-64.454-78.757-74.325-150.11-129.03-300.07-255.47-450.02-379.35-320.03-252.87-612.58-379.35-877.49-379.35h-105.08c-70.078 24.999-136.24 63.762-198.67 116.23-62.678 52.558-106.4 113.68-131.32 183.76-25.119 69.997-37.559 117.48-37.559 142.51v59.998c0 79.965 11.28 157.53 33.759 232.52 22.599 74.997 51.278 147.43 86.277 217.51l892.57 2062.5c15.04 79.969 4.88 120.05-30.038 120.05-29.999 0-72.518-17.595-127.44-52.642-175.19-105.23-377.63-295.77-607.5-571.37-115.16-135.36-227.67-270.75-337.55-405.95-194.99-285.71-390.03-623.93-585.02-1014.9-169.99-350.81-340.07-699.26-509.94-1045-60.038-20.155-125.12-37.751-195.11-52.75-69.997-14.843-142.43-22.483-217.51-22.483-94.996 0-174.95 17.483-239.95 52.482v127.51c94.916 259.94 220.03 552.46 375.07 877.48 139.87 285.04 279.95 572.46 419.9 862.53 160.03 345.03 279.95 645.02 360.11 900.04 0 44.95-12.6 67.497-37.639 67.497-4.96 0-27.439-10.076-67.437-30.015-205.07-225.04-490.02-572.62-855.01-1042.6-450.02-574.98-727.53-927.53-832.53-1057.5-289.99-350.02-524.9-587.54-704.93-712.49-90.037-39.951-180.07-59.998-269.99-59.998-65.118 0-120.04 10.08-164.99 29.999-70.077 34.951-125.12 84.949-164.99 149.99-40.078 64.998-60.038 159.99-60.038 284.99v75.045 37.467c9.9997 34.967 15.08 57.434 15.08 67.482-10.2 14.999-17.719 22.563-22.599 22.563-19.919 0-52.278-17.611-97.036-52.514-9.9996-10.096-29.919-27.563-59.838-52.53-164.15-140.03-328.35-280.02-492.74-419.98-169.15-100.08-340.99-149.99-515.14-149.99-59.718 0-124.52 7.4837-194.07 22.483-149.35 39.999-243.95 130-283.83 270.04-19.959 44.95-29.919 99.948-29.919 164.99 0 49.902 8.7597 111.18 26.359 183.74 17.399 72.405 36.199 141.25 56.238 206.24 314.95 714.97 630.02 1432.5 945.04 2152.5 14.959 39.966 4.8798 60.014-30.119 60.014-164.99-70.089-294.99-123.76-390.03-161.27-94.996-37.499-149.91-43.81-164.99-18.735-24.999 49.906-13.72 103.7 33.799 161.25 47.518 57.418 147.51 136.15 300.07 236.26 152.39 99.916 278.63 172.47 378.75 217.47 164.99 79.957 307.51 120.04 427.54 120.04 59.918 0 122.36-12.68 187.39-37.759 34.959-30.119 68.757-74.077 101.28-131.8 32.479-57.798 48.758-121.8 48.758-192.15 0-90.409-27.559-188.37-82.517-293.86l-1125-2418.9c-4.9998-14.999-2.5599-41.358 7.3998-79.073 9.9596-37.767 34.999-56.53 75.077-56.53 29.999 0 67.557 15.171 112.52 45.358 239.95 135.96 460.02 324.7 660.02 566.34 154.91 181.19 329.99 440.54 524.98 778.01 99.996 166.07 243.71 453.66 431.22 862.89 187.55 409.09 326.35 698.65 416.26 868.68 0 4.9599 6.1998 16.159 18.719 33.799 12.4 17.439 36.199 28.679 71.317 33.719 34.879 4.9198 71.277 8.6797 108.72 11.28 37.439 2.4399 86.277 3.7199 146.31 3.7199 104.96 0 219.91-12.52 344.95-37.519 45.038-4.9999 67.438-29.999 67.438-74.957 0-25.079-3.6799-50.038-11.2-75.037-7.5197-25.039-36.319-89.957-86.277-194.99-74.957-155.02-229.99-478.7-464.98-970.84-334.99-699.9-575.06-1248.8-720.01-1646.6-10.08-50.354-14.959-80.513-14.959-90.589 0-20.123 4.8798-35.251 14.959-45.326 9.9596-10.08 32.439 0 67.438 30.247 275.07 246.66 555.02 548.78 840.05 906.28 154.95 196.27 399.98 524.46 735.09 984.4 334.87 459.86 589.9 797.33 764.97 1012.4 135 135 277.51 202.51 427.46 202.51 49.918 0 97.557-7.5198 142.52-22.519 159.99-44.998 255.03-142.47 285.03-292.47 9.96-30.039 17.4-63.718 22.48-101.24 4.879-37.543 7.519-88.853 7.519-153.76v-60.014c19.96-10.076 47.399 4.9238 82.517 44.998 219.91 205.01 357.35 327.41 412.46 367.49 199.91 144.95 390.02 217.51 569.98 217.51 74.997 0 150.07-13.8 225.03-41.278 74.957-27.519 139.88-76.277 194.99-146.23 74.997-100.08 112.52-212.51 112.52-337.5 0-104.98-26.039-217.49-78.157-337.48l-892.41-2062.5c-48.118-115.12-71.917-194.99-71.917-240.02 0-29.999 9.959-47.562 29.918-52.482 19.92-5.0478 42.519-2.6079 67.518 7.4837 240.07 114.95 474.98 289.9 704.97 524.78 195.11 199.71 394.98 449.38 600.1 749.05 119.92 179.74 284.91 449.42 494.98 809.09l1155 2519.6c19.919 49.878 29.999 77.477 29.999 82.517 0 69.917-122.56 105-367.55 105-89.996 0-135 32.439-135 97.476 0 79.877 39.999 120 120.08 120 74.957 0 208.71 4.9198 401.18 14.999 192.43 9.9597 303.75 15 333.79 15 169.95 0 312.35-12.52 427.5-37.479 19.96-5.0398 32.399-10.08 37.479-15 24.999-25.079 27.439-62.558 7.48-112.52-89.997-340.07-209.95-670.1-359.99-990-235.11-490.06-362.63-766.29-382.47-828.77-20.039-62.558-29.998-103.8-29.998-123.72 0-29.999 9.959-43.878 29.998-41.278 19.84 2.52 54.918 23.719 105 63.798 94.876 84.917 187.43 149.99 277.47 194.95 29.999 14.999 69.878 30.039 119.92 45.038 50.078 15 105.12 22.479 165.03 22.479 159.99 0 289.91-49.998 389.98-149.99 164.99-180.03 247.59-404.98 247.59-675.02 0-434.54-227.63-1036.4-682.58-1805.4-14.919-25.079-20.039-43.842-14.919-56.234 4.88-12.436 14.919-18.639 29.999-18.639 29.919 0 52.518 7.3597 67.437 22.391 334.99 244.63 585.06 451.95 750.05 621.79 164.99 169.79 349.91 407.02 554.98 711.69 324.95 484.56 664.9 834.33 1020 1049.4 315.03 189.95 662.46 285.03 1042.5 285.03h179.95c55.038-10.12 92.556-14.999 112.52-14.999 210.03-50.078 370.07-170.03 480.02-360.03 39.998-80.057 60.037-172.54 60.037-277.5 0-104.98-22.479-210.02-67.437-314.88-45.078-104.92-107.64-204.74-187.59-299.66-239.99-284.68-535.06-499.34-885.01-644.18-285.03-119.87-644.98-204.87-1079.9-254.76-15.079 0-36.438-1.3119-63.757-3.7478-27.599-2.6079-63.798-36.251-108.76-101.12-44.959-64.97-90.037-129.84-135.12-194.79-40.079-119.92-59.918-277.19-59.918-471.9 0-95.044 14.959-173.84 44.958-236.27 30.039-62.562 87.437-108.76 172.51-138.76 19.879-5.0318 49.998-7.4677 90.037-7.4677 244.95 0 644.94 212.35 1200 637.24 214.95 169.68 432.46 339.52 652.5 509.31 109.96 84.841 301.19 343.35 573.74 775.46 272.51 431.9 518.78 745.53 738.81 940.54 349.83 315 744.93 472.48 1185 472.48 84.917 0 169.87-25.079 254.91-74.997 60.038-35.039 137.56-92.557 232.59-172.51 44.958-14.959 87.437 22.519 127.52 112.52 24.919 54.958 58.598 86.237 101.28 93.716 42.398 7.5197 91.116 16.199 146.15 26.319 55.038 9.9197 102.52 14.96 142.6 14.96 59.918 0 162.35-14.96 307.43-44.958 60.038-15 97.437-33.799 112.48-56.278 15.08-22.519 17.519-53.798 7.56-93.717l-1267.5-2727.6c-15.039-45.046-22.559-72.513-22.559-82.513 0-29.999 19.919-52.482 59.998-67.482 55.038-14.999 162.43 69.917 322.59 254.87 54.918 64.966 122.36 149.79 202.55 254.68 339.95 454.45 629.86 836.48 869.93 1146.2 324.91 414.47 649.94 814.21 974.96 1199.3 90.117 69.997 173.75 122.48 251.23 157.55 77.557 34.879 163.79 52.478 258.79 52.478 25.039 0 62.438-5.0799 112.52-15 130-40.078 217.51-85.117 262.47-134.99 69.998-75.037 104.96-190.07 104.96-345.02 0-50.046 10-75.029 30.119-75.029 24.919 9.9716 42.319 17.499 52.478 22.547 109.88 94.904 222.39 192.43 337.55 292.51 149.95 109.92 322.47 189.91 517.34 239.99 75.078 15 145.08 22.479 210.07 22.479 144.95 0 272.55-42.558 382.5-127.48 69.998-50.078 112.52-146.27 127.44-288.75 15.079-142.51 37.558-213.8 67.597-213.8 29.999 0 85.037 32.471 164.99 97.528 204.95 164.99 357.43 279.94 457.54 345.02 194.91 124.92 367.43 187.47 517.5 187.47 74.958 0 157.44-20.039 247.47-59.958 94.917-60.038 161.23-125.08 198.79-195.03 37.398-70.077 56.118-147.55 56.118-232.49 0-70.089-6.08-123.76-18.2-161.24-12.239-37.531-40.198-111.34-83.996-221.24zm-2275.2 1321.1c19.84-5.0398 29.999-25.079 29.999-60.038 0-44.998-25.119-67.478-75.077-67.478-34.999 0-62.598 4.9198-82.397 14.999-1725.1 654.98-3522.5 1162.5-5392.6 1522.5-1960.2 374.95-3887.7 562.5-5782.6 562.5-1504.9 0-2942.5-116.28-4312.5-348.79-1370-232.47-2687.6-598.82-3952.5-1098.7-64.998-35.079-227.55-179.99-487.46-435.06-190.03-185.03-374.99-277.47-555.02-277.47-79.957 0-164.99 15-254.91 44.998-60.038 39.998-90.157 97.516-90.157 172.55 0 39.878 15.08 84.917 45.078 135 9.9597 14.999 24.919 34.839 45.078 59.998 69.877 59.958 144.83 109.92 224.99 149.99 79.877 39.918 197.35 84.917 352.39 134.99 19.919 4.9198 32.559 27.399 37.519 67.478 4.9998 39.958 12.52 79.917 22.479 120 30.119 115 44.998 234.95 44.998 359.99 0 114.96-14.879 222.43-44.998 322.51-29.879 99.996-85.037 195.03-164.99 284.99-79.957 90.037-189.99 154.95-329.99 195.03-139.95 39.959-294.99 59.998-464.98 59.998-130.12 0-252.59-7.5197-367.55-22.519-239.95-79.997-419.9-157.47-539.94-232.51-360.02-235.07-539.97-557.54-539.97-967.48 0-134.99 19.935-281.23 60.014-438.74 39.89-157.47 107.42-331.27 202.43-521.26 54.954-110.08 117.41-239.99 187.61-389.99 219.91-475.08 409.82-912.56 569.86-1312.5 159.99-335.04 240.07-667.46 240.07-997.45 0-385.07-110.08-730.1-329.99-1035-195.03-329.99-495.02-567.42-900.09-712.46-314.94-115-679.93-172.51-1095-172.51-275.07 0-530 19.999-764.99 59.998-74.969 20.046-147.49 40.077-217.48 59.998-340.1 85.075-644.96 235.07-915.03 449.98-299.99 235.07-504.97 510.03-614.95 825.02-64.997 184.95-97.543 364.89-97.543 540.01 0 209.96 36.327 407.47 108.75 592.49 72.528 184.89 185.02 354.96 337.52 509.98 152.39 154.97 317.4 263.73 495 326.27 177.43 62.45 386.27 93.712 626.24 93.712 54.902 0 82.497-12.512 82.497-37.467 0-14.999-4.9838-27.531-14.971-37.483-10.172-10.076-17.591-17.591-22.575-22.559-304.97-139.99-530-347.55-674.96-622.49-115.06-220.04-172.53-475.06-172.53-764.97 0-320.04 55.03-595.11 165.01-825.02 139.85-285.02 364.89-509.98 674.93-674.97 320.04-144.95 652.59-217.51 997.53-217.51 485.04 0 892.54 142.48 1222.5 427.5 109.96 120 188.71 248.68 236.23 386.23 47.478 137.47 71.277 288.79 71.277 453.78 0 204.91-40.078 429.94-119.92 675-60.03 184.89-147.62 397.47-262.55 637.46-275.07 484.9-457.47 832.53-547.51 1042.5-185.03 424.89-277.49 807.39-277.49 1147.5 0 159.91 16.171 306.19 48.718 438.74 32.451 132.4 86.261 271.15 161.24 416.26 249.93 439.9 574.97 767.45 975.03 982.44 364.91 195.03 795.01 292.55 1290 292.55 319.91-30.039 562.42-72.557 727.45-127.52 250.03-85.037 442.5-227.59 577.58-427.5 44.958-74.997 79.957-170.03 105-284.99 24.999-115.08 37.439-227.55 37.439-337.51-4.9998-55.078-7.4397-95.036-7.4397-120 0-50.078 17.399-74.997 52.478-74.997 39.998 0 79.877 12.44 119.96 37.479 724.97 294.95 1475 552.42 2250.1 772.53 989.96 284.99 1975 499.94 2955 645.02 1165 174.91 2367.4 262.47 3607.5 262.47 939.96 0 1980-92.557 3120-277.51 790.01-130.04 1609.9-302.59 2459.9-517.46 330.03-95.076 662.54-187.55 997.52-277.51 574.94-185.03 1017.5-332.59 1327.6-442.5 504.94-175.07 942.36-340.07 1312.4-495.02 440.06-185.03 862.65-387.59 1267.6-607.5" fill="#ed1c24"/></g></g></svg>
